<svg xmlns="http://www.w3.org/2000/svg" width="399.339" height="163.213" viewBox="0 0 105.658 43.183"><path fill="none" d="M111.48 140.614h35.983v41.9h-35.984z" style="stroke-width:.264583" transform="translate(-41.804 -139.7)"/><path d="M119.107 172.12h-2.82v-15.775h2.82zm4.855-15.32a37 37 0 0 1 2.58-.513q1.608-.273 3.7-.273 1.881 0 3.125.53 1.245.528 1.985 1.487.744.955 1.046 2.29.306 1.332.306 2.94v8.86h-2.82v-8.252q0-1.456-.198-2.485-.199-1.034-.653-1.67a2.6 2.6 0 0 0-1.216-.926q-.756-.29-1.877-.29-.454 0-.942.034-.484.029-.926.074-.44.045-.79.108-.347.057-.5.09v13.316h-2.82z" style="stroke-width:.264583" transform="translate(-41.804 -139.7)"/><path fill="none" d="M41.804 139.7h83.333v43.183H41.804Z" style="stroke-width:.264583" transform="translate(-41.804 -139.7)"/><path d="M52.466 172.404q-.637 0-1.38-.033-.74-.029-1.485-.09-.744-.058-1.472-.15-.727-.09-1.335-.243v-20.386q.608-.153 1.335-.244.728-.09 1.472-.148.744-.062 1.472-.091.727-.033 1.364-.033 1.82 0 3.41.273 1.597.272 2.762.926 1.17.653 1.836 1.715.67 1.063.67 2.609 0 1.728-.823 2.836-.819 1.108-2.183 1.653 1.852.546 2.944 1.729 1.091 1.182 1.091 3.336 0 3.158-2.323 4.75-2.32 1.592-7.355 1.592m-2.757-9.98v7.4q.33.034.785.063.397.029.926.045.533.017 1.228.017 1.306 0 2.472-.166 1.17-.17 2.047-.595.88-.426 1.41-1.182.533-.757.533-1.91 0-1.034-.393-1.745-.393-.715-1.137-1.137-.744-.425-1.778-.607-1.03-.182-2.302-.182zm0-2.368H52.8q1.091 0 2.063-.149.971-.153 1.682-.546.716-.397 1.125-1.033.41-.637.41-1.608 0-.91-.427-1.53-.425-.624-1.17-1-.74-.38-1.744-.563-1-.182-2.121-.182-1.124 0-1.761.03-.637.028-1.15.09zm21.143 12.468q-2.609-.058-3.704-1.12-1.092-1.062-1.092-3.307v-18.93l2.824-.484v18.959q0 .699.12 1.153.124.455.397.728.272.273.727.41t1.12.227zm16.107-.756q-.971.244-2.563.517-1.591.272-3.687.272-1.82 0-3.064-.529-1.244-.533-2.005-1.505-.756-.971-1.091-2.29-.33-1.319-.33-2.927v-8.86h2.819v8.253q0 2.881.91 4.125.913 1.245 3.067 1.245.454 0 .938-.03.488-.032.91-.078.425-.045.773-.09.351-.046.504-.104v-13.32h2.82zm3.973-7.404q0-2.092.608-3.655t1.608-2.592q1-1.034 2.303-1.546 1.306-.517 2.67-.517 3.188 0 4.887 1.989 1.7 1.984 1.7 6.048v.471q0 .29-.034.533H93.876q.182 2.456 1.426 3.73 1.245 1.273 3.882 1.273 1.488 0 2.501-.257 1.017-.256 1.534-.5l.397 2.365q-.517.273-1.807.574-1.29.306-2.927.306-2.063 0-3.567-.62-1.501-.624-2.473-1.715-.967-1.092-1.438-2.592-.472-1.505-.472-3.295m10.832-1.547q.029-1.91-.96-3.137-.983-1.228-2.711-1.228-.972 0-1.716.38-.74.376-1.257.984t-.806 1.397q-.285.786-.376 1.604z" style="stroke-width:.264583" transform="translate(-41.804 -139.7)"/><path fill="#4285f4" d="M103.52 180.07q-1.475 0-2.592-.96-1.116-.955-1.116-2.43 0-1.349.695-2.23.69-.876 1.79-1.396 1.095-.517 2.919-1.084l3.795-17.925q.628-3.014 2.211-4.176 1.588-1.161 3.506-1.161 1.476 0 2.588.959 1.116.955 1.116 2.43 0 .724-.095 1.29h-1.476q.062-.69.062-.847 0-.504-.347-.785-.343-.286-.843-.286-.662 0-1.29.583-.629.579-.91 1.993l-.533 2.48h2.29l-.219 1.257h-2.323l-3.61 16.954q-.628 3.043-2.166 4.188t-3.452 1.145m-.723-2.791q1.257 0 1.79-2.452l.405-1.819q-1.662.566-2.555 1.302-.897.736-.897 1.93 0 .377.376.708.377.33.881.33" style="stroke-width:.264583" transform="translate(-41.804 -139.7)"/><path fill="none" d="M52 142.225h72.309v13.683H52.001Z" style="stroke-width:.264583" transform="translate(-41.804 -139.7)"/><path d="M73.215 150.722q.062.05.157.108t.22.107q.127.046.276.079t.31.033q.34 0 .567-.116.231-.115.372-.318t.202-.471q.067-.273.067-.575 0-.72-.36-1.104t-.951-.384q-.339 0-.55.033-.207.029-.31.062zm0 1.964h-.459v-4.824q.203-.07.521-.133.318-.066.802-.066.405 0 .732.132.326.129.562.377.24.243.368.599.132.351.132.798 0 .413-.111.765-.108.347-.319.6-.21.247-.52.388-.306.14-.7.14-.359 0-.623-.099-.265-.103-.385-.194zm6.501-5.023q.228 0 .426.037.203.033.281.07l-.095.393q-.054-.029-.227-.058-.174-.033-.455-.033-.298 0-.48.042-.177.041-.231.07v3.196h-.459v-3.477q.174-.079.484-.157.31-.083.756-.083m6.115 1.898q0 .43-.124.785-.124.352-.348.6-.219.244-.525.38-.301.136-.67.136-.363 0-.67-.136-.3-.136-.524-.38-.22-.248-.343-.6-.124-.355-.124-.785t.124-.782q.124-.355.343-.603.223-.252.525-.389.306-.136.67-.136.368 0 .67.136.305.137.524.389.224.248.348.603.124.352.124.782m-.488 0q0-.687-.318-1.092-.315-.405-.86-.405-.542 0-.86.405-.314.405-.314 1.092 0 .682.314 1.087.318.4.86.4.545 0 .86-.4.318-.405.318-1.087m2.405 3.137q-.078 0-.194-.02t-.17-.05l.062-.372q.05.012.137.025.083.016.161.016.414 0 .55-.235.14-.232.14-.695v-3.634h.46v3.61q0 .694-.265 1.025-.26.33-.88.33m1.249-6.064q0 .16-.1.256-.099.095-.24.095t-.239-.095q-.1-.095-.1-.256 0-.162.1-.257t.24-.095.24.095.099.257m2.498 2.918q0-.48.136-.835.137-.355.36-.595t.509-.356.587-.115q.67 0 1.066.438.401.434.401 1.344 0 .057-.004.115 0 .054-.008.104h-2.56q.021.67.332 1.029.31.36.988.36.372 0 .59-.07.22-.07.32-.12l.082.396q-.1.054-.372.133-.269.078-.637.078-.48 0-.819-.14t-.558-.393q-.215-.256-.314-.604-.099-.351-.099-.769m2.588-.289q-.012-.57-.269-.889-.252-.318-.72-.318-.247 0-.441.099-.19.1-.335.265t-.228.384-.095.459zm4.613 2.195q-.426 0-.752-.132-.323-.136-.538-.385-.215-.252-.326-.599-.112-.351-.112-.773 0-.434.116-.786.115-.35.335-.603.219-.256.529-.393.31-.136.698-.136.298 0 .554.05.257.045.397.123l-.12.397q-.14-.07-.318-.111-.174-.046-.471-.046-.608 0-.922.393-.31.393-.31 1.112 0 .322.07.595.07.269.227.463.158.195.41.306.252.108.612.108.293 0 .491-.066.203-.067.298-.116l.1.393q-.129.07-.402.136-.272.07-.566.07m3.773-3.725h1.451v.389h-1.45v1.939q0 .31.049.504.054.195.153.302.1.103.24.14.14.034.31.034.29 0 .467-.066t.273-.124l.115.38q-.099.066-.347.149-.248.078-.537.078-.335 0-.567-.087-.227-.09-.368-.268-.136-.182-.194-.45-.054-.27-.054-.633v-3.357l.46-.087z" style="stroke-width:.264583" transform="translate(-41.804 -139.7)"/></svg>