<svg xmlns="http://www.w3.org/2000/svg" viewBox="14.8 13.8 361.14 112.39"><path fill="#78298b" stroke="#65067c" stroke-linejoin="round" stroke-width="1.246" d="M27.733 63.93c.436-.674 4.687-7.936 4.687-7.936l81.787-.17 5.119 8.744z"/><path fill="#d7d8da" stroke="#000" stroke-linecap="round" stroke-linejoin="round" stroke-width="1.246" d="M54.311 70.758c8.528-.34 15.776-5.296 17.594-8.682 4.098-7.633 6.02-22.19 10.969-29.809 3.84-5.911 8.11-9.376 15.73-10.413 9.098-1.24 17.63 1.86 21.749 10.672 2.418 5.172 3.507 10.193 2.356 19.591-.506 4.123-2.597 14.413-9.325 20.766S90.477 89.152 79.247 90.598z"/><path fill="#f1f1f1" d="M90.158 85.562s-3.66-1.752-4.54-6.553c-.9-4.9 1.007-12.926 2.847-16.598 1.791-3.573 8.12-9.937 14.357-9.771 7.759.205 11.119 5.99 12.159 8.668 1.83 4.71-1.9 10.835-2.794 11.79-1.87 2-12.756 8.682-16.743 10.246-1.726.677-5.286 2.218-5.286 2.218"/><ellipse cx="-73.929" cy="69.623" stroke="#892ca0" stroke-linecap="square" stroke-width="1.153" rx="2.531" ry="2.63" transform="matrix(-.93107 .36483 .36485 .93107 0 0)"/><ellipse cx="74.7" cy="68.883" fill="#fff" rx="1.245" ry="1.31" transform="rotate(-21.397)skewX(.001)"/><ellipse cx="92.621" cy="75.966" stroke="#892ca0" stroke-linecap="square" stroke-width="1.153" rx="2.531" ry="2.63" transform="rotate(-20.838)skewX(.001)"/><ellipse cx="-91.85" cy="75.227" fill="#fff" rx="1.245" ry="1.31" transform="matrix(-.93459 .35573 .35575 .93458 0 0)"/><ellipse cx="103.137" cy="44.273" fill="#fff" stroke="#60605b" stroke-dashoffset="6" stroke-linecap="square" stroke-width="1.228" rx="5.534" ry="4.89" transform="matrix(.99957 -.02944 .03446 .9994 0 0)"/><path fill="none" stroke="#000" stroke-width=".82" d="m962.306-5.783.1 1.984s1.587 1.423 2.513-.033c0 0-.1-.827-.166-1.091m-2.465-.86-.1 1.984s-1.587 1.423-2.513-.033c0 0 .099-.827.165-1.091" transform="matrix(1.00056 -.00095 .00092 .99672 -858.228 47.434)"/><path fill="gray" stroke="#000" stroke-linecap="square" stroke-width=".819" d="M106.443 39.77c-.145-.372-.145-1.117-.577-1.116s-.832-.279-1.257-.279c-.425.002-.825.28-1.257.281s-.432.746-.575 1.119c-.147.373 1.834 1.581 1.834 1.581s1.976-1.213 1.832-1.585z"/><path fill="none" stroke="#000" stroke-linecap="square" stroke-width=".93" d="M91.38 30.793a2.45 2.45 0 0 1 1.104-1.748 2.45 2.45 0 0 1 1.935-.29m22.355 2.575a2.45 2.45 0 0 0-1.178-1.7 2.45 2.45 0 0 0-1.945-.206"/><ellipse cx="66.726" cy="73.52" fill="#f1f1f1" rx="1.862" ry="1.952" transform="rotate(-21.397)"/><ellipse cx="93.477" cy="83.641" fill="#f1f1f1" rx="1.65" ry="1.73" transform="rotate(-21.397)"/><path fill="none" stroke="#60605b" stroke-width=".655" d="M956.328-6.287c-2.174.008-3.902.727-5.254 1.625m5.931-.727c-2.45.31-3.99 1.667-5.216 3m5.357-2.061c-2.038.806-3.038 2.468-3.8 4.057" transform="matrix(-1.17623 .00717 .00647 1.17195 1235.59 42.354)"/><path fill="none" stroke="#60605b" stroke-width=".655" d="M956.328-6.287c-2.174.008-3.902.727-5.254 1.625m5.931-.727c-2.45.31-3.99 1.667-5.216 3m5.357-2.061c-2.038.806-3.038 2.468-3.8 4.057" transform="matrix(1.17088 -.11226 .11253 1.16656 -1020.432 156.814)"/><path fill="#d7d8da" stroke="#000" stroke-linecap="square" stroke-width="1.246" d="M56.028 69.286c-.633-.013-6.697-6.274-7.526-8.03-1.44-3.053-3.945-7.521-4.137-10.002-.195-2.516-.884-7.65-2.24-9.379-1.29-1.645-5.749-1.826-7.277.398s-.132 7.054-.132 7.054-7.589-1.955-9.964-.213c-2.375 1.743-2.987 4.811-.858 6.424 4.539 2.923 9.583.621 12.004 2.136 2.204 1.378 2.027 9.641 3.422 12.007"/><path fill="#9232a9" stroke="#8708a8" stroke-width=".266" d="m27.896 64.63 91.85-.046.026 53.76-91.85.045Z" class="fills" color="#000"/><g class="strokes"><path fill="none" d="m27.896 64.63 91.85-.046.026 53.76-91.85.045Z" class="stroke-shape" color="#000"/></g><path fill="#65067c" stroke="#892ca0" stroke-width=".266" d="M27.008 63.742v.888l.027 54.646 93.622-.045-.027-55.535zm1.773 1.775 90.078-.044.025 51.983-90.078.044Z" class="fills" color="#000"/><path fill="#772b89" d="M48.213 69.749c-.993 0-1.799.806-1.8 1.802l.019 40.18a1.8 1.8 0 0 0 1.802 1.806 1.803 1.803 0 0 0 1.796-1.807l-.02-40.181a1.803 1.803 0 0 0-1.797-1.8" class="fills" color="#000"/><path fill="#af68d9" d="M33.628 69.756a1.8 1.8 0 0 0-1.796 1.802l.02 40.181c0 .996.804 1.803 1.797 1.805l14.585-.007a1.803 1.803 0 0 0 1.796-1.807c0-.995-.804-1.803-1.798-1.805l-12.783.006-.019-38.375a1.803 1.803 0 0 0-1.802-1.8" class="fills" color="#000"/><path fill="#65067c" d="M33.628 69.756a1.802 1.802 0 0 0 .002 3.606l14.585-.007a1.803 1.803 0 0 0-.002-3.606z" class="fills" color="#000"/><path fill="#772b89" d="M70.088 69.738c-.993 0-1.8.806-1.8 1.802l.019 40.181a1.8 1.8 0 0 0 1.803 1.805 1.803 1.803 0 0 0 1.795-1.807l-.02-40.18a1.8 1.8 0 0 0-1.797-1.8" class="fills" color="#000"/><path fill="#af68d9" d="M55.503 69.746a1.8 1.8 0 0 0-1.8 1.8l.02 40.182a1.806 1.806 0 0 0 1.801 1.805l14.585-.007a1.803 1.803 0 0 0 1.796-1.807c0-.995-.804-1.803-1.797-1.804l-12.784.006-.019-38.376a1.8 1.8 0 0 0-1.802-1.8" class="fills" color="#000"/><path fill="#65067c" d="M55.503 69.746a1.802 1.802 0 0 0 .002 3.606l14.585-.007a1.802 1.802 0 0 0-.002-3.607z" class="fills" color="#000"/><path fill="#772b89" d="M91.958 69.728a1.8 1.8 0 0 0-1.796 1.801l.02 40.181a1.798 1.798 0 0 0 3.071 1.276c.338-.339.527-.798.527-1.277l-.02-40.182a1.8 1.8 0 0 0-1.802-1.8" class="fills" color="#000"/><path fill="#af68d9" d="M77.378 69.735c-.993 0-1.799.806-1.8 1.801l.02 40.182a1.806 1.806 0 0 0 1.801 1.804l14.58-.007c.478 0 .936-.19 1.274-.529a1.807 1.807 0 0 0-1.275-3.082l-12.779.006-.019-38.375a1.8 1.8 0 0 0-1.802-1.8" class="fills" color="#000"/><path fill="#65067c" d="M77.378 69.735a1.802 1.802 0 0 0 .002 3.606l14.58-.007a1.806 1.806 0 0 0 1.8-1.806 1.8 1.8 0 0 0-1.802-1.8z" class="fills" color="#000"/><path fill="#772b89" d="M113.833 69.717c-.993 0-1.799.806-1.8 1.801l.019 40.182c0 .479.19.938.528 1.277a1.8 1.8 0 0 0 2.548-.002c.338-.338.527-.798.527-1.277l-.02-40.181a1.8 1.8 0 0 0-1.802-1.8" class="fills" color="#000"/><path fill="#af68d9" d="M99.253 69.724c-.993 0-1.8.806-1.8 1.802l.019 40.18a1.806 1.806 0 0 0 1.802 1.806l14.58-.007a1.807 1.807 0 0 0-.002-3.611l-12.778.006-.019-38.376a1.8 1.8 0 0 0-1.802-1.8" class="fills" color="#000"/><path fill="#65067c" d="M99.253 69.724a1.802 1.802 0 0 0 .002 3.606l14.58-.007a1.805 1.805 0 0 0 1.8-1.806 1.8 1.8 0 0 0-1.802-1.8z" class="fills" color="#000"/><path fill="#b4b5b6" stroke="#000" stroke-linejoin="round" stroke-width="1.025" d="M81.933 58.418s2.16 9.883 3.765 11.513c1.678 1.703 3.682 2.743 5.35 2.086a5.14 5.14 0 0 0 2.827-2.698c.492-1.12.552-3.009-.382-4.411-1.043-1.565-5.432-7.236-5.93-8.701m33.339 3.611s-2.16 9.883-3.765 11.513c-1.678 1.703-3.682 2.742-5.35 2.086a5.14 5.14 0 0 1-2.827-2.698c-.492-1.121-.552-3.01.382-4.411 1.044-1.566 5.432-7.236 5.93-8.702"/><circle cx="73.763" cy="91.438" r="13.91" fill="none" stroke="#65067c" stroke-width="2.825" paint-order="stroke fill markers"/><path fill="#d6a1e3" d="M87.673 91.438a13.91 13.91 0 0 1-13.91 13.91 13.91 13.91 0 0 1-13.91-13.91 13.91 13.91 0 0 1 13.91-13.91 13.91 13.91 0 0 1 13.91 13.91"/><path fill="none" stroke="#772b89" stroke-linecap="round" stroke-linejoin="round" stroke-width="4.708" d="M80.926 87.368a8.25 8.25 0 0 1-1.846 10.455 8.28 8.28 0 0 1-10.634 0A8.25 8.25 0 0 1 66.6 87.368m7.163-5.48v4.743" paint-order="stroke fill markers"/><g fill="#9232a9" stroke-width="2.153"><path d="M143.979 116.517V56.231l8.612-1.636v22.22q5.512-4.823 13.35-4.823 6.2 0 11.196 3.014 5.08 3.014 8.009 8.096 2.928 5.08 2.928 11.454 0 6.373-3.014 11.54-2.928 5.082-8.01 8.096-4.995 3.014-11.282 3.014-3.617 0-7.062-1.12-3.359-1.205-6.2-3.358v3.79zm20.842-6.803q4.22 0 7.493-1.981 3.358-1.981 5.34-5.34 1.98-3.445 1.98-7.75 0-4.307-1.98-7.752-1.982-3.445-5.34-5.426-3.273-1.98-7.493-1.98-3.703 0-6.89 1.377t-5.34 3.876v19.808q2.153 2.412 5.34 3.79 3.273 1.378 6.89 1.378m52.277 7.665q-6.373 0-11.627-3.015-5.167-3.014-8.182-8.181-3.014-5.168-3.014-11.54 0-6.374 3.014-11.541 3.015-5.168 8.182-8.182 5.254-3.1 11.627-3.1 6.459 0 11.626 3.1 5.168 3.014 8.182 8.182 3.014 5.167 3.014 11.54t-3.014 11.54q-3.014 5.168-8.182 8.182-5.167 3.015-11.626 3.015m0-7.58q4.048 0 7.32-1.98 3.273-2.067 5.168-5.512 1.894-3.445 1.894-7.751 0-4.22-1.98-7.579-1.895-3.445-5.168-5.512-3.186-2.067-7.234-2.067t-7.32 2.067q-3.187 2.067-5.168 5.512-1.895 3.359-1.895 7.579 0 4.306 1.895 7.751t5.167 5.512q3.273 1.98 7.32 1.98m51.846 7.58q-6.373 0-11.627-3.015-5.167-3.014-8.181-8.181-3.015-5.168-3.015-11.54 0-6.374 3.015-11.541 3.014-5.168 8.181-8.182 5.254-3.1 11.627-3.1 6.46 0 11.627 3.1 5.167 3.014 8.181 8.182 3.015 5.167 3.015 11.54t-3.015 11.54q-3.014 5.168-8.181 8.182-5.168 3.015-11.627 3.015m0-7.58q4.048 0 7.32-1.98 3.273-2.067 5.168-5.512t1.895-7.751q0-4.22-1.981-7.579-1.895-3.445-5.168-5.512-3.186-2.067-7.234-2.067t-7.32 2.067q-3.187 2.067-5.168 5.512-1.895 3.359-1.895 7.579 0 4.306 1.895 7.751t5.168 5.512q3.272 1.98 7.32 1.98m47.282 7.494q-6.373 0-9.732-2.929-3.359-3.014-3.359-8.698V79.915h-9.301v-7.234h9.301V61.485l8.526-2.067V72.68h12.919v7.234H311.66v23.77q0 3.359 1.464 4.823 1.55 1.378 4.995 1.378 1.81 0 3.187-.258 1.464-.259 3.1-.776v7.235q-1.722.603-4.047.861-2.24.345-4.134.345"/><path fill="#000" d="M351.536 117.293q-6.287 0-11.454-3.015-5.167-3.014-8.182-8.182-2.928-5.167-2.928-11.54t3.014-11.454q3.015-5.168 8.096-8.182 5.167-3.1 11.454-3.1 4.995 0 9.56 1.894 4.65 1.895 8.01 5.34l-5.34 5.942q-2.498-2.756-5.598-4.134t-6.46-1.378q-3.961 0-7.234 1.981-3.186 1.981-5.081 5.426t-1.895 7.665 1.895 7.665 5.167 5.512q3.273 1.98 7.32 1.98 3.36 0 6.288-1.291 2.928-1.378 5.512-3.962l5.253 5.512q-3.445 3.531-8.01 5.426-4.478 1.895-9.387 1.895"/></g></svg>