<svg xmlns="http://www.w3.org/2000/svg" xml:space="preserve" width="823" height="182"><g transform="translate(-10.08 -2.542)scale(.42756)"><path d="M143.301 192.047c-1.021-2.814-8.993-5.95-11.218-9.47-2.226-3.519-1.675-9.607-1.615-11.877l-.532-5.136 7.973-1.123c3.727-.525 26.445.826 53.17 1.082l51.725-2.796 1.863 9.334c1.988 9.955-10.454 22.564-14.565 23.325l-1.354 3.534-38.324 3.79-45.468-6.106z" style="fill:#79278c;fill-opacity:1;stroke:#79278c;stroke-width:.5;stroke-opacity:1"/><path d="M234.407 193.964c0-.19 1.708-2.672 3.41-6.407 5.007-10.985 11.504-24.962 18.882-49.436 8.805-29.209 16.338-51.219 20.833-60.87 18.507-39.737 44.977-60.916 87.596-60.017 5.428.114 43.317 8.662 57.51 21.802 13.117 12.144 24.048 34.09 29.788 55.152 1.925 10.147 1.707 41.268-.221 54.508-1.536 10.548-7.696 33.653-8.743 34.796-.673.733-23.61-11-24.144-12.205-.908-2.042.15 3.237-2.25 7.093-2.557 4.107-4.266 2.893-4.835.627-.322-1.285-4.067-8.003-7.224-11.198-12.463-12.61-32.608-18.852-49.574-15.362-10.262 2.111-24.287 10.502-36.398 21.777l-4.88 4.543-8.023-4.135c-4.024-2.074-3.362-6.2-4.142-6.499-.779-.299 1.111-.638-.222.14-4.75 2.771-19.232 7.616-21.265 7.49-2.728-.17.91.402.66 11.865l1.896 8.73-24.427 1.78c-12.297.897-25.562.185-25.562-.005zm105.962-68.146c1.98-3.286 4.296-8.81 7.359-9.45l8.598-4.826c9.21 11.972 18.742 15.375 32.21 6.866 2.604-1.646 5.663-4.983 6.258-4.983 1.902 0 12.44 10.563 15.007 15.132 2.62 4.666 1.073 3.711 2.968 1.428 1.754-2.113.033-3.177-7.713-11.128-3.593-3.689-8.92-9.854-8.466-9.854 1.629 0 11.619 4.37 17.137 8.52 6.048 4.545 5.887 5.106 5.887 2.295 0-2.51-5.913-5.12-13.706-9.103-5.795-2.96-8.775-7.434-5.766-6.935 1.904.317 10.73 1.76 14.132 2.891 5.398 1.797 9.195 2.827 9.446 4.972.379 3.236 2.231 6.463 5.755 6.463 3.539 0 5.832-2.624 5.832-6.02 0-2.803-.262-4.687-2.362-6.299-2.027-1.557-5.652 1.882-7.994 3.522-1.755 1.23-3.419-3.104-7.28-4.813-2.361-1.044-7.255-2.394-10.876-3-6.125-1.026-9.543 1.28-10.3-1.26-3.29-11.035-3.8-18.323-11.042-21.837-4.551-2.209-15.479-2.934-20.339-1.35-8.813 2.873-14.112 9.815-14.306 20.061l-.104 5.478-10.196 3.805c-8.55 3.191-16.83 4.8-17.247 7.015-.666 3.534-.094.198 8.212-4.01 4.595-2.328 13.727-4.524 15.327-3.06 1.174 1.071-2.385 4.772-4.908 6.11-5.134 2.721-13.73 9.148-13.73 11.623 0 3.255-.41-2.453 4.403-5.829 6.586-4.62 19.146-8.327 20.415-8.327.477 0-7.424 5.107-9.822 7.76-4.626 5.118-10.156 15.577-9.121 17.251 1.273 2.06 2.839-3.315 6.332-9.108zm-29.91-4.169c5.436-2.81 6.189-9.358 1.603-13.944-3.525-3.525-6.618-3.987-10.67-1.594-10.224 6.04-1.495 21 9.066 15.538zm107.757-27.927c2.413-2.155 2.897-3.26 2.897-6.6 0-3.342-.484-4.447-2.897-6.602-2.002-1.789-3.885-2.588-6.098-2.588-3.638 0-1.556 2.061 1.056 4.425 4.445 4.022 3.608 9.588-2.108 9.588-4.424 0-5.155-2.193-1.23.9 3.91 3.083 4.765 4.107 8.38.877z" style="fill:#d8d8d8;fill-opacity:1;stroke:#d8d8d8;stroke-width:.918924;stroke-opacity:1"/><path d="M418.748 400.613c.666-.98 2.032-1.19 2.392-1.949.509-1.074.556-1.323.556-2.956 0-1.664-3.903-2.654-4.435-3.685-.557-1.079-.566-1.137-.398-2.37.507-3.724 4.433-9.289 4.515-66.717l-.542-103.015h7.32l7.807-2.754 1.44 76.218c.715 37.778-.42 105.82-.566 109.098-.01.224-8.052 9.96-11.6 6.667l-8.166-6.067z" style="fill:#932fa9;fill-opacity:1;stroke:#932fa9;stroke-width:.176777;stroke-opacity:1"/><path d="m90.645 398.628-16.802-.96 8.152-85.955-.402-75.934 23.545-1.206 319.357-14.652-2.676 100.287-.123 75.5-303.784 2.32c-8.525.065-24.766 4.057-27.266.6z" style="fill:#932faa;fill-opacity:1;stroke:#932faa;stroke-opacity:1"/><path d="m49.192 314.927.375-112.502 118.123-2.768 115.618 3.2 2.765 7.732c1.43 3.996 3.563 9.295 3.56 9.707-.002.413-5.534 5.293-13.536 5.293-20.945 0-18.562-1.628-18.56 15.07v8.601h-7.498l-16.62.91 2.579-8.836c-.001-3.035-4.273-7.696-3.321-8.748.848-.937.01 2.076.318.18.445-2.743-1.577-4.41 2.904-4.254l-2.516-2.925-33.303-5.31-27.588 6.27-3.249 3.248-3.248 3.248-1.016 80.65-2.267 79.398 2.19 2.332 2.192 2.332 29.986 6 31.29-3.977 2.445-2.906c2.244-2.666-3.82-2.907.473-8.416l5.386-9.776h15.263l3.92 9.288c2.504 5.937.374 8.342 2.072 10.5l2.073 2.635 29.891 2.652h34.753l-1.235-7.387c-.51-3.054 2.125-2.39 2.249-70.75.15-82.379.752-99.975 2.21-105.388.606-2.252 4.138-7.42 3.956-10.634l-4.27-12.005 18.922 5.264 50.381-3.17-4.364 14.195-5.184 13.23-28.356.54c-4.966.094-4.51-2.95-6.39-1.07-2.223 2.223-.508.22-1.152 24.464-.365 13.73-7.415 52.352-7.416 86.746l5.248 54.284 2.904 1.716c1.889 1.115-.213 9.965 3.75 9.965l80.004-.88-.035 12.8v10.5l-192.025 4.947H45.975Zm91.803 86.828c1.1-1.1 1.996-2.787 1.991-3.75-.005-.962-5.721-40.628-5.676-87.84.076-77.886-1.567-79.755-3.04-81.383-2.353-2.599-5.693-1.874-36.078-.986-20.94.612-29.645-6.499-31.33-5.135-1.993 1.615-.686 3.176-1.24 89.711l5.295 83.803 5.851 2.984 27.755-1.06c33.468-1.28 34.549 5.58 36.472 3.656z" style="fill:#932fa9;fill-opacity:1;stroke:#932fa9;stroke-opacity:1"/><path d="M288.147 213.997c.802 2.174 1.436 3.94 1.63 4.543.497 1.562-1.246 1.793-16.163 2.137l-16.723.385-2.572 2.99c-3.223 3.747-3.221 5.196.002 8.945l2.572 2.992 28.893.317 28.895.316v154.57h4.982c3.14 0 5.705.652 6.934 1.764 1.888 1.71 1.956-.86 2.136-80 .103-44.97.273-83.113.375-84.76.085-1.36-2.102-3.462-1.238-5.107v-5.719c-1.093 4.062-3.534 7.212-7.408 9.606-6.966 4.305-15.656 1.96-23.049-6.225-1.262-1.396-2.627-3.695-4.043-6.754zm102.184 0q-.105.676-.152 1.358l-.297 4.634-19.89.534c-17.614.472-20.15.767-22.136 2.566-2.97 2.691-2.97 8.178 0 10.87 2.037 1.845 4.11.475 27.382-.353 19.2-.683 27.122 3.834 29.31 4.956l2.933 1.504v151.125h4.87c2.678 0 5.798.496 6.933 1.103 2.031 1.087 2.063-.108 2.063-76.746v-77.85c.123-3.029 4.768-15.49 5.784-7.964l2.786-8.64c-2.885 5.514-8.28 10.704-13.524 12.895-5.156 2.155-8.99 1.803-13.463-1.236-6.038-4.103-9.139-11.937-7.97-18.756zm-189.576 6.588c-33.965.07-26.902 3.586-29.887 7.586-1.867 2.5-2.778-1.162-1.625 1.624.728 1.755-7.17 4.837-6.197 5.32.973.482 14.613-1.886 30.16-1.592l28.149 2.63-.008 8.364v7.46l-5.666 2.862c-15.777 7.97-26.879 20.592-33.075 37.602-2.406 6.606-2.75 9.215-2.75 20.882s.344 14.278 2.75 20.885c6.197 17.012 17.309 29.642 33.075 37.596l5.666 2.86.312 8.263.31 8.264h5.159c3.506 0 5.627.567 6.623 1.771 1.27 1.537 1.505.695 1.775-6.402l.31-8.17 7.157-.008c7.828-.008 21.478-2.915 29.022-6.18 16.883-7.308 31.79-26.04 35.822-45.012 6.171-29.043-8.514-59.776-34.426-72.047-7.759-3.674-21.94-6.87-30.521-6.878l-7.256-.008.236-11.368c.233-11.18.19-11.408-2.668-13.867-2.901-2.495-2.96-2.499-32.447-2.437m-129.591 2.967-2.52.588c-2.953.688-2.48 3.792-1.971 5.867 1.453 5.935 1.17 3.641 32.534 4.217l30.123.258-.509 79.642.274 77.067h4.59c2.523 0 5.52.68 6.658 1.511 1.138.832 2.18 1.402 2.318 1.264s.276-38.108.307-84.379c.055-83.62.04-84.143-2.149-86.33-2.131-2.13-3.283-2.2-35.863-2.2zm171.485 30.326c25.329-.712 49.347 14.89 58.352 41.11 1.948 5.672 2.45 9.434 2.45 18.335s-.502 12.664-2.45 18.336c-3.249 9.46-9.066 18.223-16.86 25.4-8.014 7.378-15.052 11.202-25.552 13.887-10.225 2.616-18.922 2.602-29.037-.048-11.167-2.926-17.753-6.823-26.963-15.954-18.738-18.575-23.089-44.472-11.473-68.287 4.494-9.214 17.072-21.86 26.275-26.418 8.227-4.073 16.816-6.123 25.258-6.36m1.742 9.701c-1.353.007-2.736.363-4.11 1.074-4.783 2.473-5.845 6.32-5.43 19.682.383 12.375 1.466 15.144 6.763 17.315 1.173.48 2.774.664 3.555.408s1.769-.467 2.197-.467 1.83-.98 3.113-2.176c2.179-2.03 2.334-3.136 2.334-16.533 0-12.875-.217-14.576-2.105-16.465-1.893-1.893-4.062-2.85-6.317-2.838m30.452 23.608c-3.003-.072-5.686 1.285-7.522 3.906-2.252 3.216-2.154 6.081.403 11.715 4.012 8.843 2.489 20.05-3.71 27.29-15.633 18.266-45.4 7.444-45.31-16.472.014-3.823.825-7.937 2.133-10.818 2.759-6.08 2.662-8.99-.418-12.573-3.33-3.872-9.039-4.042-12.93-.386-3.651 3.43-7.142 14.835-7.185 23.474-.064 12.676 4.621 23.555 13.869 32.205 6.034 5.645 11.698 8.79 19.709 10.948 7.402 1.993 12.878 1.995 20.494.011 13.306-3.465 23.762-11.874 29.662-23.859 3.275-6.652 3.443-7.59 3.443-19.28 0-11.37-.227-12.747-3.035-18.376-2.368-4.748-3.8-6.335-6.514-7.23a10.7 10.7 0 0 0-3.09-.555" style="fill:#772b89;fill-opacity:1"/><path d="M345.656 227.844c-1.592 57.27-1.292 114.544-1.102 171.827l2.52 2.04c2.359 1.91 4.625 2.038 36.048 2.038h33.53l2.618-2.619c2.948-2.948 3.31-6.51.977-9.594-2.142-2.83-10.647-3.664-38.092-3.732l-22.135-.055v-77.334l-.07-74.308h-5.38c-4.532 0-7.408-4.197-8.914-8.263m-93.721.231-1.271 24.17 16.039.316.519-12.01-.46-4.928-4.923-2.54c-3.814-1.968-5.912-.53-8-2.619zm-186.313.586v170.151l4.637 4.937h33.83c30.667 0 34.035-.175 36.035-1.867 3.57-3.02 3.926-6.96.941-10.43l-2.578-2.996-28.433-.496-28.432-.496v-154.38h-5.19c-3.634 0-6.03-.663-8-2.21zm92.799 0v170.151l2.32 2.468 2.318 2.47h67.993l2.617-2.62c3.282-3.282 3.316-6.05.119-9.767l-2.5-2.907-28.434-.496-28.433-.496v-154.38h-5.19c-3.635 0-6.031-.663-8-2.21zm94.133 145.877c-.965.25-1.332 3.563-1.332 11.967 0 10.144.281 11.98 2.21 14.434l2.211 2.81h68.207l2.62-2.619c3.288-3.288 3.314-6.052.093-9.797l-2.523-2.933-28.41-.46-28.408-.46v-10.285s-13.935-2.846-14.668-2.657" style="fill:#b265de;fill-opacity:1"/><path d="M307.982 231.513c-3.566-.935-9.172-4.233-12.567-7.63-2.387-2.387-3.12-5.422-4.359-8.103-1.336-2.892-4.02-11.464-4.19-12.81-.04-.319-.565-2.164-1.337-4.72-1.63-5.389-2.336-11.024-3.8-17.092-.57-2.366-.976-4.835-1.224-5.396-.33-.747-.9-.907-.9-.907l21.304-8.93s.872 1.062 1.348 1.915c1.37 2.452 8.207 8.68 15.933 19.628 3.923 5.56 7.149 12.83 7.927 14.133 2.74 4.59 3.723 7.685 3.462 11.284-.465 6.413-2.92 14.251-8.54 17.175-3.12 1.623-9.874 2.287-13.057 1.453z" style="fill:#a0a0a0;stroke:#a0a0a0;stroke-width:.229731;stroke-opacity:1"/><path d="M401.025 237.771c-4.906-2.017-9.71-8.87-11.362-14.237-.887-2.88 4.06-9.782 4.857-12.408.47-1.549 3.288-7.79 4.019-8.27.484-.32 9.28-17.22 13.694-23.849 2.474-3.716 4.344-6.683 4.56-7.403.283-.945 4.191-.025 4.56.087.783.237 18.839 7.65 19.519 8.014.58.311 4.557 2.632 3.969 4.763-.334 1.207-2.936 7.252-4.654 13.596-4.878 18.012-6.855 25.288-9.923 29.371-2.374 3.16-8.863 3.784-11.47 5.308-5.367 3.137-12.207 7.386-16.024 5.817z" style="fill:#a0a0a0;stroke:none;stroke-width:.324889"/><circle cx="428.938" cy="111.703" r="8.138" style="fill:#f1f1f1;fill-opacity:1;fill-rule:evenodd;stroke:none;stroke-width:8.1806;stroke-linecap:round;stroke-linejoin:round;stroke-dasharray:none;stroke-opacity:1"/><path d="m390.748 84.31 2.163 8.552c2.793 4.916 2.905 10.533.045 15.58l-4.42 9.966c3.867-2.704 7.317-3.737 10.111-2.038 3.943 2.398 9.67 8.934 11.868 13.541 1.851 3.884 2.154 4.067 4.396 2.647.884-.56 1.133-1.512.625-2.385-4.686-8.055-9.108-13.367-13.701-16.46-3.888-2.619-4.814-3.659-3.256-3.659 3.349 0 12.538 4.96 17.848 9.633 3.877 3.413 5.002 3.935 5.972 2.765 2.319-2.793-10.05-12.02-21.758-16.228-1.865-.67-1.905-.82-.304-1.205 2.478-.595 14.18 2.471 19.826 5.197 2.524 1.218 4.864 1.94 5.2 1.605 2.683-2.683-9.073-8.913-18.723-9.92-6.268-.657-7.755-.577-8.46-4.337-1.091-5.813-3.403-9.765-7.432-13.255m-35.098.66c-5 4.25-7.118 8.862-7.118 15.136 0 1.55-3.011 2.275-7.105 3.248-5.77 1.37-15.369 5.834-18.381 8.547-1.404 1.264-1.573 2.03-.682 3.103.97 1.17 1.766 1.012 4.416-.875 4.597-3.273 14.628-7.22 18.395-7.238 2.878-.014 2.63.251-2.48 2.63-3.183 1.482-8.25 5.274-11.518 8.622-4.803 4.918-5.604 6.252-4.54 7.535 1.096 1.32 2.207.665 7.249-4.258 5.012-4.894 13.19-10.299 15.584-10.299l.015.002h.002l.002.002h.002l.002.002v.002h.004l.002.002.002.002.002.002.002.002.002.006c.078.246-1.867 2.422-4.527 5.045-5.344 5.27-11.713 16.391-10.506 18.344 1.468 2.375 3.326.874 5.693-4.598 1.353-3.126 4.55-7.735 7.104-10.242l4.644-4.559 4.411-3.59c-.718-1.203-2.663-5.703-3.106-7.087-1.366-4.276-1.57-8.82.698-12.403z" style="fill:#656560;fill-opacity:1"/><path d="M370.105 121.688c-11.577-2.096-21.227-17.928-18.29-28.507 1.845-6.643 8.634-12.029 15.74-13.895 3.013-.79 9.376-.625 12.355.106 4.085 1.004 8.984 6.092 11.92 9.194 3.396 3.588 4.665 6.73 4.665 11.65 0 4.435-2.953 9.662-5.749 13.19-4.578 5.772-13.205 9.607-20.64 8.262m6.592-23.969c3.982-3.966 4.268-1.774 3.796-4.05-.555-2.677-.706-1.64-4.095-2.717-3.449-1.098-3.42-.519-5.962 1.23-1.726 1.19-.829-.645-1.266 1.707-.336 1.812-1.133.107 2.013 3.168 2.931 2.852 4.3 6.293 4.3 7.978 0 1.74-4.12 5.957-6.87 5.96-1.854.002-4.58-5.589-4.38-5.718 1.99-1.276.386 1.933 1.568 2.762 1.473 1.297 3.965-.187 3.965-.187s-8.075 4.812 6.93-10.133" style="fill:#fff;fill-opacity:1;stroke:none;stroke-width:.229731"/><ellipse cx="373.531" cy="100.235" rx="22.963" ry="21.696" style="fill:none;fill-opacity:1;fill-rule:evenodd;stroke:#60605b;stroke-width:4.88829;stroke-linecap:round;stroke-linejoin:round;stroke-dasharray:none;stroke-opacity:1"/><path d="M92.14 195.385c-.976-.877-6.17-11.516-7.197-15.052-1.628-5.6-2.374-6.778-6.028-8.404-2.155-.96-3.32-3.313-19.08-4.08-14.352-.7-21.738-1.018-27.613-5.06-2.482-1.708-2.249-9.104-2.72-12.486-.926-6.636-.773-14.673 5.274-17.758 5.095-2.6 18.68-1.44 35.318 1.454 4.306.75 7.818 1.687 8.25 1.687 1.06 0-1.252-.294-2.481-7.19-1.406-7.886-.432-16.744.974-20.3 1.29-3.264 5.826-7.172 9.479-8.597 2.225-.869 3.932-2.224 8.075-2.252 4.903-.034 7.861 1.73 10.965 3.287 3.684 1.847 4.904 6.365 6.786 11.377 1.738 4.633 3.389 12.857 4.462 20.54 2.464 17.637 1.388 21.017 8.512 36.406 4.354 9.406 11.562 23.826 12.73 25.467.554.777 1.645 1.41 1.477 1.578s-11.098.528-23.34.628l-22.258.182z" style="fill:#d7d8da;fill-opacity:1;stroke:#d7d8da;stroke-width:.459462;stroke-opacity:1"/><path d="m52.481 198.884-1.714-2.434.42-2.128c.132-.666.856-4.11 2.566-7.22s4.638-6.856 6.33-10.038l3.06-5.753 6.599-.407c6.122-.377 9.403.074 11.852 2.558 1.499 1.52 2.165 3.348 3.349 6.87 1.05 3.124 3.909 4.91 4.908 11.124.362 2.254-1.084 5.348-.964 5.663.209.55.585 1.604-.905 1.736-.852.075-7.98-1.678-14.237-1.604s-12.937 2.064-15 2.13c-3.75.12-7.326-.372-7.326-.372z" style="fill:#79278c;fill-opacity:1;stroke:#79278c;stroke-width:.25;stroke-opacity:1"/><path d="M289.359 219.971s-30.46.037-32.468 1.09c-3.847 2.02-6.16 7.382-4.228 9.748 4.23 5.18 5.249 4.893 41.978 5.237 21.49.2 34.38-.372 34.38-.372s.449-2.769.087-7.478c-.217-2.615-1.28-3.04-1.28-3.04s.53.723-3.573 2.801c-2.437 1.235-5.81 4.31-8.682 4.126-18.871-1.202-26.214-12.112-26.214-12.112m97.583.043s-32.639 1.07-34.425 1.362c-3.594.588-4.657 1.766-6.394 4.33-1.904 2.813.122 5.88 1.733 8.252 2.518 3.706 7.722 1.984 35.23 1.961l24.651-.02 3.783 1.79c3.318 1.572-.588-1.405 3.27-1.43 4.989-.032 9.863-2.19 4.513-.786-20.183 5.293-29.493-15.365-29.421-15.484zm-285.88.661c-33.187.224-32.993.202-35.16 3.766-1.718 2.824-1.908 4.637-.728 6.912 1.54 2.967 3.41 4.11 7.396 4.525 1.91.2 17.452.343 34.54.32 28.285-.04 31.224-.128 32.82-.989 2.672-1.44 3.47-2.967 3.47-6.637 0-3.017-.144-3.386-2.076-5.318-1.928-1.928-2.37-2.102-6.186-2.43-2.26-.193-17.594-.26-34.076-.149m99.248.12c-30.155.008-36.123-.147-37.966.68-5.214 2.34-5.724 9.57-.915 12.974.942.668 5.253 1.26 9.19 1.457 3.024.151 18.487.276 34.364.276 26.585 0 29.008-.078 30.65-.974 5.005-2.736 5.015-10.312.017-13.335-1.74-1.052-2.886-1.087-35.34-1.078" style="fill:#65067c;fill-opacity:1;stroke-width:.653893"/><path d="M289.634 220.296c-.74-1.127-.182 1.645-7.381 1.906v13.89c2.473.008 5.148.013 8.037.013 31.355 0 33.89-.14 35.53-1.952.97-1.072 1.84-3.083 1.765-4.462-.075-1.364.717-5.773-.043-4.26-7.697 15.316-27.309 11.033-37.908-5.135" style="fill:#65067c;fill-opacity:1"/><path d="M333.105 19.084c-20.738 5.833-37.02 18.222-50.31 37.918-11.04 16.361-16.307 29.49-29.031 72.373-4.766 16.066-9.25 30.17-9.963 31.344s-1.909 4.291-2.655 6.931c-2.063 7.305-5.861 20.357-9.302 24.83l-3.707 3.06 1.965-.153c1.714-.132 3.907-.864 4.86-1.918 4.246-4.691 12.532-26.273 19.948-51.951 14.11-48.85 21.429-67.605 32.352-82.912 13.26-18.584 26.336-28.603 45.841-34.77zm78.766 7.828v5.71c16.384 10.85 27.626 27.723 34.516 51.497 6.834 23.586 5.232 59.274-4.221 94.012a24262 24262 0 0 0-5.854 21.582c-6.28 23.208-8.855 28.063-17.52 33.031-6.71 3.85-11.846 4.078-16.784.75-7.43-5.006-10.548-14.32-7.489-22.367.53-1.392 6.097-9.703 12.372-18.469 13.933-19.466 15-21.348 12.623-22.261-.95-.364-1.813-.53-1.918-.37s-1.432 2.452-2.948 5.092c-3.644 6.348-13.222 19.32-15.754 21.334-1.105.88-3.716 4.787-5.804 8.682-3.235 6.032-3.794 8.084-3.762 13.865.052 9.331 3.35 14.624 11.695 18.772 8.486 4.217 16.204 2.59 25.211-5.319 4.884-4.289 11.53-18.153 13.813-28.814.908-4.245 2.588-11.08 3.734-15.186 6.532-23.4 8.507-32.356 9.992-45.334 3.627-31.684 1.145-53.513-8.671-76.265-7.767-18.005-18.861-31.328-33.231-39.942M91.742 95.622c-7.715.524-14.04 4.34-17.123 10.706-2.177 4.498-2.365 6.066-1.824 15.133.599 10.042.584 10.111-1.762 9.523-1.3-.327-6.802-1.096-12.23-1.71-18.568-2.105-27.777 1.295-32.817 12.119-5.27 11.32-1.807 19.74 10.33 25.109 5.942 2.629 21.155 4.748 31.756 4.426 4.317-.131 9.196.32 10.842 1.002 3.673 1.52 7.094 8.892 8.102 17.465.665 5.662.862 5.992 3.648 5.992h1.477l-.541-9.211c-2.237-10.24-4.355-14.573-8.7-17.813-2.572-1.916-5.087-2.263-20.8-2.851-19.373-.723-25.979-2.427-31.282-8.07-5.345-5.69-1.498-18.215 6.805-22.155 5.032-2.388 18.68-2.264 31.67.29 5.573 1.093 10.306 1.825 10.52 1.624.212-.2-.241-2.911-1.006-6.023-1.977-8.04-1.796-19.828.367-23.914 2.35-4.442 7.692-6.812 15.344-6.807 8.71.006 12.326 2.41 15.21 10.12 2.967 7.927 4.1 13.215 5.471 25.505 1.402 12.574 4.09 20.554 13.154 39.037 8.655 17.65 10.84 20.585 14.94 20.094l2.406-.434-3.406-3.88c-3.777-4.3-11.346-22.273-12.795-25.688l-.014-.076h-2.845v-4.479h.322c-2.381-3.503-6.42-15.372-6.445-19.263-.036-5.24-3.04-21.552-5.463-29.67-2.917-9.77-6.836-13.766-15.202-15.502-2.812-.584-5.537-.775-8.109-.6m210.055 68.804q-.056 0-.108.002c-.572.037-.93.507-.93 1.478 0 .8 3.958 7.068 8.798 13.926s10.782 15.291 13.203 18.738c2.42 3.448 4.718 7.975 5.11 10.06 2.217 11.825-8.784 23.813-19.263 20.991-6.005-1.617-12.97-7.306-15.8-12.904-2.748-5.432-7.972-22.063-10.805-34.399-1.52-6.62-2.29-8.267-3.86-8.267-2.194 0-2.172.23 1.465 13.695 1.163 4.306 1.893 8.054 1.618 8.328-.484.484 4.875 16.136 8.224 24.02 1.823 4.29 8.855 10.6 14.582 13.086 8.53 3.7 17.94.693 23.766-7.596 5.39-7.67 5.26-22.761-.24-27.994-2.916-2.773-16.835-21.788-21.329-29.139-1.535-2.51-3.328-4-4.431-4.025" style="fill:#000"/><path d="M235.351 376.38c-7.094-.825-18.534-2.2-25.287-6.174-6.687-3.935-18.745-15.99-22.283-21.97-14.843-25.088-11.669-57.258 7.794-78.044 11.783-12.582 30.23-20.668 47.585-20.757 27.663-.142 54.724 21.8 62.864 48.708 1.71 5.654 2.046 7.103 2.057 16.212.01 8.394-1.186 13.08-2.454 17.68-6.857 24.88-28.024 43.788-53.69 46.645-3.5.39-9.31-1.015-9.893-1.062s-3.861-.909-6.693-1.238z" style="fill:#d7a0e3;fill-opacity:1;stroke:#d7a0e3;stroke-width:.707107;stroke-opacity:1"/><path d="M212.757 288.165c-5.27 0-9.184 4.535-11.725 13.582-7.084 25.225 7.42 49.565 33.477 56.182 6.36 1.615 17.157.435 25.103-2.746 9.747-3.902 18.622-12.133 23.283-21.592 5.174-10.499 5.52-25.92 1.327-35.264-3.57-7.955-5.922-10.162-10.832-10.162-7.114 0-11.256 8.287-7.106 14.213 1.094 1.562 1.96 5.494 2.268 10.29.416 6.492.112 8.558-1.864 12.64-3.138 6.483-9.82 12.033-16.996 14.12-11.358 3.301-23.238-2.139-29.33-13.43-3.79-7.028-4.035-14.087-.771-22.245 2.875-7.186 2.836-9.036-.272-12.648-1.93-2.244-3.483-2.94-6.562-2.94" style="fill:#772b89;fill-opacity:1;stroke-width:1.00157;stroke-dasharray:none"/><path d="M364.637 148.804c-5.13.048-10.173.847-14.87 2.47-3.957 1.367-10.677 4.76-14.935 7.541-8.556 5.588-22.189 16.599-22.189 18.597 0 .703 3.877 7.748 6.856 11.976l5.416 7.687 37.463-.28 37.463-.28 6.332-8.86c7.137-9.985 10.78-9.904-.054-20.922-10.62-10.822-26.094-18.075-41.482-17.93" style="fill:#f1f1f1;fill-opacity:1"/><path d="M364.396 15.123c-30 0-52.954 9.103-70.363 27.906-17.455 18.854-25.61 36.51-41.055 88.893-7.764 26.334-7.828 26.543-8.933 28.01-.646.858-9.114 1.17-36.84 1.138v4.453h34.357l-2.06 7.026c-3.306 8.783-7.3 17.647-10.701 22.115l-1.33 1.748c-7.957.015-16.47.024-25.301.027a11801 11801 0 0 0-55.48.157c-4.543-9.635-12.485-17.96-15.8-28.164l-1.378.449.024-3.55-5.241-10.476c-1.29-3.227-3.366-12.826-4.61-21.332s-3.005-17.958-3.914-21c-3.616-12.112-9.816-16.882-21.828-16.8-9.306.063-15.51 3.352-18.988 10.066-2.25 4.342-2.438 5.802-1.963 15.299.518 10.357.495 10.492-1.78 9.865-1.266-.35-6.917-1.15-12.554-1.781-18.058-2.02-27.196 1.316-32.61 11.9-7.5 14.663 2.435 26.244 24.68 28.772 5.248.596 9.68 1.22 9.848 1.388.17.17-1.038 2.436-2.683 5.034s-5.685 10.434-7.897 14.394l-4.021 7.2v233.263h395.734V194.348l3.133-9.881c7.229-22.797 9.502-35.977 10.351-60.012.7-19.795-.902-32.347-6.117-47.953-13.568-40.601-42.233-61.379-84.68-61.379m4.272 4.443c9.453.24 17.564 1.718 26.25 4.672 11.61 3.95 18.832 8.608 28.715 18.528 7.814 7.843 9.906 10.764 14.588 20.357 3.006 6.16 6.768 15.519 8.359 20.799 2.601 8.624 7.625 12.042 8.074 30.603.565 23.39-5.189 34.258-9.715 52.28-6.473 25.777-10.163 39.745-13.125 48.115 1.014 13.759-.616 8.277 3.66 5.002.502 0 .79 46.2.641 102.668l-.273 102.666-192.268.27-192.267.269v-222.94l116 .003h116l2.765 7.732v-7.734l.793.115c-2.358-7.457-3.785-16.358-5.207-22.781-1.058-4.782-1.793-6.133-3.34-6.133-2.218 0-2.213.067 1.387 13.742 1.14 4.33 1.906 8.043 1.701 8.248-.15.151-19.545.286-47.092.352 1.006-1.362 2.19-3.792 4.288-8.133 4.979-10.305 11.839-30.03 17.484-49.944 6.61-23.316 16.922-53.555 21.26-62.338 18.196-36.85 43.34-54.235 81.35-56.251 3.52-.187 6.819-.245 9.97-.165zM93.285 100.473q1.286-.06 2.545.011c5.584.32 10.567 2.55 12.45 6.188 2.587 5.006 5.667 17.88 7.036 29.42 1.593 13.426 3.427 19.052 12.143 37.246 5.817 12.143 9.26 19.568 12.293 23.295-18.113.103-34.553.241-46.32.394l-1.682-10.845c-2.243-10.265-4.354-14.577-8.742-17.848-2.627-1.958-5.015-2.285-20.801-2.853-15.263-.55-18.6-.984-23.152-3.018-8.312-3.714-10.147-5.953-10.147-12.385 0-6.336 3.162-11.612 8.807-14.69 4.606-2.51 18.407-2.427 31.726.19 5.574 1.095 10.266 1.867 10.43 1.715s-.45-4.544-1.367-9.758c-2.593-14.75-.437-22.403 7.17-25.447 2.43-.972 5.043-1.495 7.611-1.615m208.785 64.002c-.69-.02-1.162.44-1.162 1.45 0 .81 4.36 7.648 9.69 15.2 8.38 11.875 12.702 17.951 14.927 21.73h73.746v-2.546h1.952l1.423-2.817c3.9-7.713 11.983-15.33 14.42-19.111 3.827-5.938 4.198-7.007 2.723-7.832-.94-.526-1.83-.79-1.977-.59s-1.416 2.284-2.818 4.63c-1.402 2.348-5.373 8.227-8.822 13.067l-6.272 8.801h-74.062l-9.117-13.068c-5.015-7.187-9.96-14.387-10.989-16-1.17-1.835-2.65-2.885-3.662-2.914m-228.035 6.584c7.463.525 10.728 5.083 12.576 16.54.705 4.373 1.053 7.582 1.783 9.499q-2.01.03-3.753.062l-29.791.541-3.336-1.441 7.537-13.67 6.656-11.201 4.865-.317a26 26 0 0 1 3.463-.013" style="fill:#000"/><path d="M244.044 159.931c-39.015 1.233-77.765 1.023-116.79.839.837 1.897 2.623 5.345 2.623 5.345l111.686-.592zM60.577 171.234s-1.039 2.433-2.684 5.03c-1.645 2.6-5.684 10.435-7.896 14.395l-4.022 7.2v233.263h395.733V196.33s-6.262 21.501-6.233 23.591c.501 0 .789 46.201.64 102.668l-.27 102.666-192.27.27-192.267.27v-222.94l116 .002h116l-1.9-6.81-58.76-.2s-14.353-.577-23.184-.575c-17.838.005-57.596.758-57.596.758l-6.937.037c-28.304.163-85.575.698-85.575.698l3.826.214 12.526-25.59zm339.264 25.28-74.002-.06 4.896 6.4 63.613.035zM79.22 224.868c3.22.22 10.778 5.438 25.443 2.155 19.12-4.28 26.587 8.476 29.534 8.426 0 0-55.41-10.61-54.977-10.58m100.105 11.204c2.88.042 6.249.078 10.195.118z" style="baseline-shift:baseline;display:inline;overflow:visible;vector-effect:none;fill:#65067c;fill-opacity:1;stop-color:#000"/><circle cx="243.16" cy="314.355" r="64.921" style="fill:none;fill-rule:evenodd;stroke:#65067c;stroke-width:5.89606;stroke-linecap:round;stroke-linejoin:round;stroke-dasharray:none;stroke-opacity:1"/><path d="M243.17 264.445c-5.5 0-9.96 5.204-9.96 11.624v16.797c0 6.42 4.46 11.624 9.96 11.623 5.5.001 9.959-5.203 9.96-11.623V276.07c0-6.42-4.46-11.625-9.96-11.625" style="baseline-shift:baseline;display:inline;overflow:visible;vector-effect:none;fill:#772b89;fill-opacity:1;stroke-width:.88728;stroke-linecap:round;stop-color:#000"/><path d="M372.169 98.103c-1.506-.607-2.77-2.042-3.337-3.233-.241-.506-.818-1.427-.574-1.94.545-1.143 3.996-2.428 6.543-2.419 1.745.006 2.705 1.165 3.782 1.796 1.07.627 2.61 1.645 2.04 2.513-.69 1.048-3.046 2.473-3.926 2.9-1.04.503-3.033 1.44-3.972 1.06z" style="fill:gray;fill-opacity:1;stroke:gray;stroke-width:.162444;stroke-opacity:1"/><path d="M373.967 87.45c-4.091.008-7.613 2.118-8.47 5.535-.66 2.625-.24 3.481 3.056 6.248 4.578 3.844 5.112 7.64 1.213 8.62-3.273.82-4.861-.126-4.861-2.9 0-1.252-.56-1.972-1.334-1.714-2.15.716-2.21 3.987-.117 6.3 1.472 1.626 2.708 1.974 5.16 1.456 4.09-.865 6.637-.858 10.851.021 2.58.54 3.864.2 5.522-1.459 2.313-2.313 2.071-6.584-.373-6.584-.823 0-1.165.808-.85 2.012.659 2.518-1.156 3.711-4.402 2.897-4.43-1.112-4.309-3.932.355-8.239 3.715-3.43 4.155-4.32 3.455-6.968-.601-2.275-1.856-3.403-5.002-4.502a12.7 12.7 0 0 0-4.203-.723m.365 3.8c.628 0 1.263.022 1.873.118.93.147 1.8.431 2.499.873 1.292.818 1.304 1.241.085 2.71-2.535 3.054-4.667 3.617-7.218 1.905-1.32-.885-2.4-2.22-2.4-2.967 0-1.552 2.52-2.57 5.161-2.638" style="fill:#000;fill-opacity:1"/><circle cx="305.986" cy="113.854" r="8.859" style="fill:#f1f1f1;fill-opacity:1;fill-rule:evenodd;stroke:none;stroke-width:8.90567;stroke-linecap:round;stroke-linejoin:round;stroke-dasharray:none;stroke-opacity:1"/><path d="M329.118 46.552c-2.681.095-6.181.876-8.102 2.047-3.535 2.156-6.413 7.606-5.404 10.236 1.08 2.815 3.679 1.757 4.92-2.004 1.313-3.976 5.866-6.639 9.424-5.51 1.501.477 2.234.076 2.63-1.44.303-1.157.281-2.37-.046-2.698-.5-.5-1.813-.689-3.422-.63m85.652 2.442c-2.714-.054-4.73.956-4.406 3.23.288 2.026.897 2.313 4.262 2.02 4.457-.388 8.342 2.538 8.342 6.283 0 1.68.573 2.126 2.4 1.864 2.932-.42 2.87-4.26-.133-8.336-2.328-3.16-6.975-4.99-10.465-5.06" style="fill:#000"/><path d="M331.087 73.366c-10.314.107-15.138 11.166-11.244 18.797 3.177 6.23 11.3 9.05 17.068 6.422 12.369-5.633 8.12-25.363-5.824-25.219m1.953 3.674c4.94-.043 7.345 6.298 3.656 9.637-2.213 2.003-6.585 1.173-7.793-1.479-1.22-2.677-.603-5.956 1.41-7.502.458-.35 1.685-.647 2.727-.656" style="fill:#8c26a9;fill-opacity:1;stroke-width:.623359"/><path d="m333.366 77.013-.326.027c-2.97.256-7.832 3.007-8.957 5.818-1.043 2.608-1.056 4.144-.05 6.55 2.254 5.396 8.57 7.63 12.952 3.548 2.104-1.959 2.427-3.955 2.367-7.912-.014-.986-.305-2.075-.718-3.103.503 4.398-4.482 8.284-8.68 4.751-3.727-3.135-1.65-8.353 3.289-9.42l.123-.027zm5.268 4.928c-.123-1.074-.573-2.179-1.442-3.213-.779-.928-1.55-1.16-1.64-1.112l-.002.002-.002.002h-.002v.002l-.002.002v.008l.004.01c.02.028.094.074.228.125.49 0 1.962 1.945 2.858 4.174m-2.858-4.174h-.012v.002h-.002v.004h.002v.002l.002.002c.03.022.19.074.215.076v-.002h-.002l-.002-.002a2 2 0 0 0-.201-.082" style="fill:#000;stroke-width:.60854"/><path d="M332.298 87.905c-.289-.067-.849-.29-1.244-.494-1.798-.932-3.142-2.61-3.125-5.23.015-2.332 1.186-4.032 2.8-5.156.537-.374 1.516-.618 2.467-.615 3.006.01 5.482 2.794 5.473 6.156-.006 2.47-1.646 4.81-3.74 5.34-.65.163-1.925.163-2.631 0z" style="fill:#fefefe;fill-opacity:1;stroke:#fefefe;stroke-width:.0858213;stroke-opacity:1"/><path d="M410.946 73.91c-6.587.171-12.685 5.596-12.646 13.56.023 4.777 3.293 9.692 7.863 11.82 7.442 3.466 15.737-.396 18.066-8.41 1.405-4.83-.293-9.967-4.527-13.693-2.667-2.348-5.762-3.356-8.756-3.278m-3.863 5.725q.632.036 1.277.248c2.477.817 4.13 2.803 4.475 5.38.268 1.995.105 2.408-1.625 4.138-2.65 2.65-5.2 2.672-7.803.07-1.483-1.483-1.851-2.282-1.851-4.012 0-3.454 2.58-6 5.527-5.824" style="fill:#8924a8;fill-opacity:1;stroke-width:.647699"/><path d="M410.557 78.81c-3.233.043-6.626 1.257-7.422 2.544-.02.034.935-.216 1.473-.97 1.633-.963 2.093-1.024 3.83-.503 3.731 1.118 5.51 4.685 3.997 8.008-1.679 3.684-7.815 3.591-9.844-.149-.418-.77-.77-1.135-.781-.808 1.915 4.261 5.445 8.146 10.267 8.326 4.51.07 7.77-3.47 7.77-8.436 0-3.145-1.576-5.758-4.332-7.183-1.158-.599-3.017-.852-4.957-.826z" style="fill:#000;stroke-width:.60854"/><path d="M403.296 81.138c1.11-1.087 2.18-1.546 3.61-1.55 2.088-.004 4.474 1.5 5.446 3.432.519 1.03.712 1.747.797 2.96.162 2.294-2.344 4.083-3.219 4.636-5.016 3.165-11.692-4.522-6.634-9.478z" style="fill:#fefefe;fill-opacity:1;stroke:#fefefe;stroke-width:.108259;stroke-opacity:1"/><path fill="none" d="M53.47 197.015c-.778-.346-1.485-.698-1.57-.783-.204-.2 6.208-11.833 10.523-19.093l3.31-5.568.851-.143c.468-.078 2.641-.158 4.829-.176 4.497-.04 5.103.054 7.363 1.13 2.725 1.296 4.363 3.483 5.825 7.777 1.178 3.463 1.408 4.425 2.106 8.824.597 3.754 1.233 7.163 1.437 7.695.063.162-.096.267-.497.327-.324.048-6.516.173-13.76.277s-14.482.228-16.086.276l-2.917.085z" style="fill:#000;fill-opacity:0;stroke:none;stroke-width:.176777"/></g><text xml:space="preserve" x="226.278" y="155.063" style="font-style:normal;font-variant:normal;font-weight:400;font-stretch:normal;font-size:152.491px;font-family:&quot;DejaVu Sans&quot;;-inkscape-font-specification:&quot;DejaVu Sans&quot;;text-align:start;writing-mode:lr-tb;direction:ltr;text-anchor:start;fill:#000;fill-rule:evenodd;stroke:none;stroke-width:8.31239;stroke-linecap:round;stroke-linejoin:round"><tspan x="226.278" y="155.063" style="stroke:none;stroke-width:8.31239"><tspan style="fill:#9232a9;fill-opacity:1">boot</tspan>c</tspan></text></svg>