<svg xmlns="http://www.w3.org/2000/svg" width="1051" height="170" fill="none"><path fill="#14003D" fill-rule="evenodd" d="M142.381 93.424c1.36-4.692 2.099-9.833 2.099-15.425 0-34.977-28.923-74.345-57.81-74.345S28.857 43.022 28.857 77.999c0 7.626 1.375 14.413 3.825 20.366l-17.365-.977C8.246 96.99 1.73 102.033 2.833 109.03c.428 2.714 1.243 5.492 2.7 7.891-4.916 3.458-6.925 9.815-2.941 14.797 3.998 5.001 9.87 9.609 17.928 9.609 8.74 0 14.001-2.259 17.196-5.096a9.9 9.9 0 0 0 1.474 3.612c3.923 5.956 10.42 12.503 20.026 12.503 16.34 0 18.163-10.263 19.077-15.413.072-.403.137-.775.204-1.108l10.92-5.461 10.92 5.461q.099.501.204 1.107v.001c.915 5.15 2.737 15.413 19.078 15.413 9.605 0 16.103-6.547 20.026-12.503q.231-.351.428-.711c3.079 1.331 7.154 2.195 12.56 2.195 8.059 0 13.93-4.608 17.929-9.609 4.897-6.126.737-14.329-6.749-16.668l-2.473-.773c7.263-3.765 8.332-10.864 7.554-17.085-.879-7.03-8.537-10.068-15.222-7.725zm-52.954 36.839h-.019l.01.005z" clip-rule="evenodd"/><path fill="#14003D" d="M273.444 136.871c-33.174 0-54.386-21.531-54.386-59.49 0-35.884 23.923-57.894 55.502-57.894 27.273 0 46.89 15.63 49.761 42.105H302.63c-2.073-14.513-11.642-24.402-28.07-24.402-19.776 0-33.971 15.152-33.971 40.192 0 25.996 14.035 41.786 33.493 41.786 16.587 0 27.591-10.686 29.824-25.519h20.893c-2.711 25.838-21.371 43.222-51.355 43.222M340.007 134V22.358h19.457v37.32c0 2.233-.159 4.626-.638 7.656 4.306-7.815 11.643-13.716 23.924-13.716 17.224 0 27.432 12.12 27.432 31.26V134h-19.458V87.748c0-11.483-5.582-18.66-14.673-18.66-9.569 0-16.587 8.453-16.587 19.298V134zm112.048 2.871c-13.557 0-26.794-8.932-26.794-24.242 0-17.544 13.556-23.605 30.303-25.838l11.164-1.435c6.379-.797 8.612-3.19 8.612-7.017 0-5.423-4.465-10.208-12.759-10.208-9.091 0-14.832 5.104-15.63 13.238h-20.095c1.276-16.268 14.513-27.751 34.609-27.751 23.763 0 33.333 12.759 33.333 34.609V134h-18.022v-3.19c0-2.552.319-4.944.797-7.496-4.147 7.656-12.121 13.557-25.518 13.557m5.263-14.354c10.367 0 18.66-7.656 18.66-18.66v-8.453c-1.754 1.595-4.466 2.392-9.25 3.349l-6.38 1.276c-9.091 1.754-15.311 4.785-15.311 11.802 0 6.858 5.423 10.686 12.281 10.686M513.824 134V56.17h19.458V134zm-.478-89.633V23.953h20.255v20.414zM553.385 134V56.17h19.458v3.508c0 2.233-.16 4.626-.638 7.656 4.306-7.815 11.642-13.716 23.923-13.716 17.225 0 27.432 12.12 27.432 31.26V134h-19.458V87.748c0-11.483-5.582-18.66-14.673-18.66-9.569 0-16.586 8.453-16.586 19.298V134zm124.169 35.406c-22.966 0-36.044-12.28-36.044-29.983h19.777c.318 9.25 6.22 14.673 16.746 14.673 10.207 0 18.819-6.061 18.819-17.704v-8.453c0-3.508.16-6.698.638-9.728-4.625 7.017-12.121 12.918-24.242 12.918-20.255 0-34.928-14.194-34.928-38.755 0-24.243 16.906-38.756 33.971-38.756 13.716 0 20.574 5.582 25.199 13.716-.478-2.712-.638-4.785-.638-7.656V56.17h19.458v75.438c0 25.518-15.789 37.798-38.756 37.798m.638-53.747c11.483 0 19.777-9.729 19.777-23.285s-8.294-23.286-19.777-23.286c-11.802 0-20.095 9.729-20.095 23.286 0 13.556 8.293 23.285 20.095 23.285m85.157 21.212c-15.63 0-27.91-10.686-27.91-31.26V56.169h19.617v46.412c0 10.845 4.785 18.66 14.194 18.66 9.889 0 16.906-7.337 16.906-18.82V56.169h19.458V134h-19.298v-3.19c0-2.392.319-5.103.797-7.496-3.987 7.496-10.845 13.557-23.764 13.557m84.935 0c-13.556 0-26.794-8.932-26.794-24.242 0-17.544 13.557-23.605 30.303-25.838l11.164-1.435c6.38-.797 8.613-3.19 8.613-7.017 0-5.423-4.466-10.208-12.759-10.208-9.091 0-14.833 5.104-15.63 13.238h-20.096c1.276-16.268 14.514-27.751 34.609-27.751 23.764 0 33.333 12.759 33.333 34.609V134h-18.022v-3.19c0-2.552.319-4.944.798-7.496-4.147 7.656-12.121 13.557-25.519 13.557m5.264-14.354c10.366 0 18.66-7.656 18.66-18.66v-8.453c-1.755 1.595-4.466 2.392-9.251 3.349l-6.379 1.276c-9.091 1.754-15.311 4.785-15.311 11.802 0 6.858 5.423 10.686 12.281 10.686M910.054 134V56.17h19.458v5.9c0 2.871-.16 5.264-.638 8.134 4.146-8.771 11.164-16.586 22.806-16.586 1.595 0 2.871.16 4.147.478v18.82c-1.276-.32-3.03-.638-5.582-.638-11.962 0-20.733 6.06-20.733 23.126V134zm87.015 2.871c-20.574 0-35.566-14.035-35.566-41.467 0-27.91 17.703-41.786 35.885-41.786 12.122 0 19.612 6.22 24.082 13.716-.64-2.871-.64-5.263-.64-7.656v-37.32h19.46V134h-19.46v-3.19c0-2.711 0-4.784.64-7.496-3.03 5.742-10.05 13.557-24.401 13.557m4.621-15.311c11.65 0 20.26-10.686 20.26-26.316 0-15.949-8.61-26.156-20.26-26.156-11.639 0-20.411 10.686-20.411 26.156 0 16.109 8.772 26.316 20.411 26.316"/></svg>