<svg xmlns="http://www.w3.org/2000/svg" width="240" height="59" fill="none"><path fill="#F8F4E9" fill-rule="evenodd" d="M10.612 0C4.752 0 0 4.751 0 10.612v37.551c0 5.861 4.751 10.613 10.612 10.613h37.551c5.861 0 10.613-4.752 10.613-10.613v-37.55C58.776 4.75 54.024 0 48.163 0zm24.859 14.14-5.482-1.079-2.367 11.136-4.345 20.438c1.75.343 3.446.678 5.164 1.016l.32.063zM14.067 24.41q2.54-2.608 5.09-5.221v-.002l4.085 3.661-1.301 1.337-5.293 5.44 4.13 4.249 2.466 2.537-3.215 2.913-.873.792L8.98 29.628q2.548-2.613 5.087-5.22m28.152-2.553 7.577 7.77v.002l-6.419 6.617-3.756 3.872-1.3-1.18-2.79-2.527 6.594-6.782a10603 10603 0 0 0-6.591-6.78l4.084-3.66z" clip-rule="evenodd"/><path fill="#F8F4E9" d="M91.109 45.526q-2.743 0-4.78-1.672-2.013-1.698-3.135-4.78-1.124-3.11-1.124-7.263 0-4.127 1.124-7.21 1.122-3.108 3.134-4.78 2.038-1.698 4.78-1.698 2.248 0 3.71 1.123 1.463 1.124 2.22 2.926.784 1.802 1.176 4.127v11.05q-.392 2.325-1.175 4.128-.758 1.776-2.22 2.925-1.463 1.125-3.71 1.124m3.578-6.374q1.23 0 2.09-.627a4.8 4.8 0 0 0 1.332-1.515V26.639a4.8 4.8 0 0 0-1.332-1.515q-.86-.653-2.09-.653-1.357 0-2.325.862-.965.835-1.488 2.482-.497 1.646-.497 3.996 0 2.378.497 4.023.523 1.645 1.489 2.482.967.836 2.324.836M98.11 8.954h8.307V44.9H98.11zm25.48 36.572q3.186-.001 5.329-.836 2.168-.862 3.265-1.75v-5.695q-1.333.627-2.952 1.07-1.594.445-3.657.445-2.456 0-4.206-.784-1.724-.783-2.638-2.273-.915-1.488-.914-3.552v-1.855q0-1.855.496-3.16.496-1.333 1.384-1.986.914-.68 2.116-.68 1.175 0 2.012.55.861.522 1.306 1.619.47 1.097.47 2.717h3.344v-.288h-15.282v4.389h19.279v-3.318q-.001-3.84-1.385-6.53-1.385-2.716-3.944-4.101-2.561-1.385-5.983-1.385-3.369 0-6.034 1.724-2.638 1.725-4.127 4.859-1.49 3.135-1.489 7.21 0 4.05 1.698 7.157a11.9 11.9 0 0 0 4.78 4.78q3.082 1.672 7.132 1.672m30.307-.627 5.356-26.149h-8.438l-4.075 24.033-4.075-24.033h-8.542l5.329 26.149zm8.276-35.945h8.281v28.421h.105l-2.09 7.524h-6.296zm15.308 36.572q-2.248 0-3.709-1.124-1.463-1.149-2.247-2.925-.758-1.803-1.175-4.128V26.3q.417-2.325 1.175-4.1.784-1.803 2.247-2.927 1.462-1.149 3.709-1.149 2.717 0 4.754 1.698 2.038 1.672 3.135 4.78 1.123 3.083 1.123 7.21 0 4.154-1.123 7.262-1.097 3.083-3.135 4.78-2.037 1.672-4.754 1.672m-3.579-6.374q1.358 0 2.325-.836.966-.837 1.463-2.482.523-1.646.523-4.023 0-2.351-.523-3.997-.497-1.646-1.463-2.481-.967-.862-2.325-.862-1.227 0-2.089.653a5.1 5.1 0 0 0-1.359 1.515v10.37q.496.862 1.359 1.516.862.627 2.089.627m27.953 6.374q-3.814 0-6.661-1.725-2.821-1.724-4.363-4.832-1.515-3.109-1.515-7.158t1.515-7.157q1.542-3.11 4.363-4.807 2.847-1.724 6.661-1.724t6.635 1.724q2.848 1.698 4.363 4.807 1.514 3.108 1.515 7.157 0 4.05-1.515 7.158t-4.363 4.832q-2.821 1.724-6.635 1.724m0-6.531q1.358 0 2.299-.862.966-.862 1.436-2.456.497-1.62.497-3.866 0-2.22-.497-3.84-.47-1.62-1.436-2.481-.941-.862-2.299-.862-1.385 0-2.325.862t-1.437 2.481q-.47 1.62-.47 3.84 0 2.247.47 3.866.496 1.594 1.437 2.456.94.862 2.325.862m19.727-8.411h6.217v2.742L222.756 44.9h-8.124zm3.552 2.063h-3.5l-6.792-13.897h8.385l5.643 12.225h3.552l6.818 13.924h-8.463zm1.254-3.082 4.624-10.815h8.019l-6.426 13.558h-6.217z"/></svg>