<svg xmlns="http://www.w3.org/2000/svg" width="280" height="80" fill="none"><path fill="#fff" d="M239.621 31.029a12.9 12.9 0 0 0-4.524-3.106c-1.764-.728-3.68-1.112-5.789-1.112-2.071 0-3.987.384-5.712 1.112a12.9 12.9 0 0 0-4.524 3.106c-1.266 1.341-2.263 2.913-2.99 4.792-.729 1.878-1.074 3.949-1.074 6.25 0 2.3.345 4.37 1.034 6.287a14.3 14.3 0 0 0 2.914 4.869c1.266 1.342 2.761 2.377 4.525 3.144 1.763.728 3.68 1.111 5.827 1.111 2.185 0 4.141-.383 5.904-1.111 1.764-.729 3.259-1.764 4.525-3.144 1.264-1.342 2.224-2.952 2.874-4.87.653-1.916.998-3.986.998-6.287s-.345-4.37-1.035-6.25c-.729-1.84-1.726-3.45-2.953-4.791m-5.943 17.137c-.996 1.495-2.453 2.224-4.332 2.224-1.878 0-3.336-.729-4.37-2.224s-1.534-3.527-1.534-6.057.499-4.563 1.534-6.02q1.552-2.185 4.37-2.185c1.879 0 3.336.728 4.332 2.185.997 1.457 1.534 3.45 1.534 6.02-.039 2.53-.537 4.562-1.534 6.057M209.41 22.709c-3.106-2.032-7.552-3.067-13.38-3.067-1.611 0-3.49.076-5.598.23a48 48 0 0 0-6.057.805v36.729h8.779V46.019h2.761c5.827 0 10.352-1.035 13.495-3.105q4.717-3.106 4.716-10.122c-.039-4.677-1.611-8.051-4.716-10.083m-6.671 14.569c-1.534.805-3.834 1.227-6.864 1.227h-2.759V27.27a77 77 0 0 1 1.609-.115c.614-.038 1.227-.038 1.879-.038 1.266 0 2.416.077 3.49.268 1.035.154 1.954.46 2.683.882s1.303.997 1.687 1.725.576 1.61.576 2.684q0 3.394-2.301 4.6M116.437 24.28c-1.917-1.571-4.179-2.722-6.825-3.45s-5.597-1.112-8.856-1.112c-1.534 0-3.374.077-5.52.192-2.148.115-4.18.383-6.174.728v35.924c1.956.422 3.988.652 6.02.806 2.032.114 3.834.191 5.367.191 3.374 0 6.403-.421 9.087-1.188 2.722-.806 4.984-1.994 6.863-3.604q2.817-2.416 4.37-6.096c1.035-2.454 1.534-4.218 1.534-7.515 0-3.45-.499-6.364-1.534-8.818-.958-2.492-2.415-4.486-4.332-6.057m-5.981 22.697c-2.07 2.148-5.253 3.221-9.508 3.221-.729 0-1.38 0-1.879-.038-.537 0-.997-.039-1.38-.077v-22.89c.537-.076 1.15-.115 1.763-.153.614 0 1.227-.038 1.802-.038 4.294 0 7.4 1.035 9.394 3.067 1.955 2.032 2.952 5.06 2.952 9.048-.039 3.834-1.074 5.712-3.144 7.86m60.614-14.11c-.498 1.65-.996 3.336-1.533 5.061a395 395 0 0 1-1.61 4.946c-.537 1.61-1.074 3.067-1.534 4.37a107 107 0 0 1-1.572-4.37 379 379 0 0 1-1.61-4.946c-.537-1.687-1.035-3.374-1.534-5.06-.498-1.65-.92-3.221-1.303-4.64h-8.665a205 205 0 0 0 5.483 16.026c1.916 4.908 3.833 9.164 5.712 12.844h6.786c1.879-3.642 3.757-7.936 5.674-12.844a205 205 0 0 0 5.484-16.026h-8.436c-.421 1.419-.843 2.953-1.342 4.64m-22.121 16.524c-.038 0-.077.038-.115.038-.652.269-1.304.46-1.955.652-.461.115-.921.23-1.457.307-.69.115-1.419.23-2.109.307q-1.15.114-2.3.114c-2.339 0-4.218-.498-5.598-1.495-1.38-.996-2.185-2.338-2.339-3.987h18.518c.039-.422.077-.958.115-1.495.039-.575.039-1.074.039-1.572q0-7.305-3.566-11.042c-2.377-2.492-5.597-3.757-9.7-3.757-1.763 0-3.45.345-5.137.997-1.649.651-3.144 1.61-4.409 2.913-1.266 1.266-2.301 2.876-3.106 4.793s-1.188 4.14-1.188 6.71c0 2.108.306 4.102.92 5.904.613 1.84 1.533 3.412 2.799 4.754 1.265 1.342 2.837 2.377 4.754 3.144q2.875 1.15 6.786 1.15a27 27 0 0 0 3.067-.154c.23-.038.422-.038.652-.076 5.636-.614 8.779-2.3 8.779-2.3l-2.185-6.557c-.422.269-.843.46-1.265.652M133.536 37.7c.23-.69.575-1.266.997-1.764s.997-.92 1.649-1.227 1.457-.46 2.339-.46c.958 0 1.763.153 2.377.498.651.345 1.15.767 1.572 1.266.421.498.728 1.111.92 1.763.191.652.306 1.342.345 2.032h-10.697c.115-.767.268-1.457.498-2.108m131.927-16.525v6.786a16 16 0 0 0-2.8-.958q-1.38-.345-3.105-.345c-2.109 0-3.949.345-5.597 1.073-1.61.729-2.99 1.725-4.14 3.106-1.113 1.342-1.995 2.99-2.569 4.907-.613 1.917-.882 4.102-.882 6.48 0 2.377.345 4.485 1.035 6.364q1.035 2.818 2.99 4.83c1.303 1.342 2.914 2.34 4.83 3.068 1.918.728 4.064 1.073 6.519 1.073.996 0 2.07-.038 3.183-.153 1.111-.077 2.184-.23 3.258-.384 1.074-.153 2.07-.345 3.067-.536a25 25 0 0 0 2.569-.652V17.073zm0 28.985c-.423.076-.92.153-1.573.191-.651.039-1.34.077-2.069.077-2.301 0-4.027-.805-5.177-2.377s-1.725-3.642-1.725-6.25c0-5.405 1.993-8.089 5.944-8.089a10 10 0 0 1 2.568.345c.843.23 1.533.499 2.032.844z"/><path fill="#BA50FF" d="m25.84 58.25 29.522-55.4H44.857L20.28 48.971l-5.137-9.279 10.236-18.44H15.144L4.907 39.692l10.237 18.442h.268l-.077.115zm34.468-36.768h-.23l.038-.115H49.611l-29.521 55.4h10.505L55.17 30.645l5.137 9.278L50.07 58.364h10.237l10.237-18.441z"/></svg>