<svg xmlns="http://www.w3.org/2000/svg" width="822.711" height="181.408" viewBox="0 0 217.676 47.997"><defs><clipPath id="a" clipPathUnits="userSpaceOnUse"><path d="M934.657-1.484h26.194v12.832h-26.194z" style="opacity:1;fill:#e7e8e9;fill-opacity:1;stroke:#a7a9ac;stroke-width:.529167;stroke-linecap:square;stroke-linejoin:miter;stroke-miterlimit:4;stroke-dasharray:none;stroke-dashoffset:6;stroke-opacity:1"/></clipPath></defs><g aria-label="podman" style="font-style:normal;font-weight:400;font-size:37.592px;line-height:22.5552px;font-family:sans-serif;letter-spacing:0;word-spacing:0;fill:#892ca0;fill-opacity:1;stroke:none;stroke-width:.264583px;stroke-linecap:butt;stroke-linejoin:miter;stroke-opacity:1"><path d="M1249.878-209.933c-3.12 0-5.526 1.278-6.992 3.609v-3.459h-4.323v27.292h4.323v-10.751c1.466 2.33 3.872 3.609 7.067 3.609 5.714 0 9.473-4.098 9.473-10.075 0-6.09-3.872-10.225-9.548-10.225m-.902 16.616c-3.572 0-6.09-2.67-6.09-6.541 0-3.76 2.518-6.466 6.09-6.466 3.57 0 6.09 2.744 6.09 6.466 0 3.834-2.52 6.54-6.09 6.54m23.52-16.615c-6.202 0-10.45 4.098-10.45 10.15 0 6.015 4.248 10.15 10.45 10.15 6.165 0 10.413-4.135 10.413-10.15 0-6.052-4.248-10.15-10.413-10.15m0 3.722c3.572 0 6.09 2.631 6.09 6.466 0 3.871-2.518 6.503-6.09 6.503-3.608 0-6.127-2.632-6.127-6.503 0-3.835 2.519-6.466 6.127-6.466m29.66-11.466v11.353c-1.466-2.33-3.871-3.646-7.104-3.646-5.64 0-9.511 4.097-9.511 10.112 0 6.09 3.834 10.262 9.586 10.262 3.195 0 5.6-1.278 7.03-3.608v3.42h4.323v-27.893zm-6.127 24.473c-3.646 0-6.127-2.707-6.165-6.504.038-3.834 2.556-6.578 6.165-6.578s6.127 2.706 6.127 6.578c0 3.797-2.518 6.504-6.127 6.504" style="font-style:normal;font-variant:normal;font-weight:400;font-stretch:normal;font-family:Montserrat;-inkscape-font-specification:Montserrat;fill:#892ca0;fill-opacity:1;stroke-width:.264583px" transform="translate(-1175.737 223.933)"/><path d="M1339.133-209.933c-3.646 0-6.315 1.466-7.593 4.812-.94-3.045-3.383-4.812-6.955-4.812-3.308 0-5.864 1.203-7.255 4.022v-3.872h-4.285v20h4.285v-9.887c0-3.496 2.105-6.128 5.564-6.24 2.932 0 4.699 1.841 4.699 4.886v11.24h4.323v-9.886c0-3.496 2.067-6.128 5.488-6.24 2.932 0 4.737 1.841 4.737 4.886v11.24h4.323v-12.443c0-4.774-2.744-7.706-7.33-7.706m29.358 20.149-.038-13.12c-.038-4.397-2.933-7.029-8.083-7.029-3.797 0-5.827.865-8.608 2.519l1.767 3.007c1.992-1.353 3.984-2.03 5.902-2.03 3.157 0 4.774 1.504 4.774 4.022v.602h-6.053c-4.811.038-7.556 2.368-7.556 6.015 0 3.533 2.707 6.202 7.03 6.202 2.895 0 5.188-.864 6.616-2.631v2.443zm-9.962-3.233c-2.406 0-3.872-1.165-3.872-2.97 0-1.916 1.315-2.668 4.135-2.668h5.413v1.842c-.226 2.18-2.594 3.796-5.676 3.796m27.44-16.916c-3.384 0-5.94 1.203-7.369 3.985v-3.835h-4.323v20h4.323v-10.64c.301-3.12 2.369-5.412 5.677-5.45 3.007 0 4.812 1.842 4.812 4.85v11.24h4.323v-12.444c0-4.774-2.782-7.706-7.443-7.706" style="fill:#fff" transform="translate(-1175.737 223.933)"/></g><path d="M963.983-1.265h12.722M966.1 1.38h12.722" style="fill:none;fill-rule:evenodd;stroke:#3c6eb4;stroke-width:1.05833;stroke-linecap:butt;stroke-linejoin:miter;stroke-miterlimit:4;stroke-dasharray:none;stroke-opacity:1" transform="translate(-937.324 24.184)"/><g style="stroke-width:.869167" transform="matrix(1.15005 0 0 1.151 -1081.25 24.623)"><path d="M973.104 3.398c-2.309-3.742-1.792-7.352-2.883-12.51-.6-3.185-2.622-5.815-5.254-6.778-2.172-.757-6.683-.76-8.595 0-2.633.963-4.655 3.593-5.254 6.778-1.092 5.158-.575 8.768-2.883 12.51" style="fill:#ccc;fill-opacity:1;fill-rule:evenodd;stroke:#000;stroke-width:.689901;stroke-linecap:butt;stroke-linejoin:miter;stroke-miterlimit:4;stroke-dasharray:none;stroke-opacity:1"/><ellipse cx="966.564" cy="-4.107" rx="1.116" ry="1.175" style="opacity:1;fill:#e7e8e9;fill-opacity:1;stroke:none;stroke-width:.689901;stroke-linecap:square;stroke-linejoin:miter;stroke-miterlimit:4;stroke-dasharray:none;stroke-dashoffset:6;stroke-opacity:1"/><ellipse cx="955.287" cy="-4.107" rx="1.116" ry="1.175" style="opacity:1;fill:#e7e8e9;fill-opacity:1;stroke:none;stroke-width:.689901;stroke-linecap:square;stroke-linejoin:miter;stroke-miterlimit:4;stroke-dasharray:none;stroke-dashoffset:6;stroke-opacity:1"/><g style="stroke:#a7a9ac;stroke-width:.518003;stroke-miterlimit:4;stroke-dasharray:none"><path d="m956.419-5.981-4.67 1.251m5.199-.524-4.697 2.712m5.094-1.852L952.582.37m4.961-3.64L955.11.947" style="fill:none;fill-rule:evenodd;stroke:#a7a9ac;stroke-width:.518003;stroke-linecap:butt;stroke-linejoin:miter;stroke-miterlimit:4;stroke-dasharray:none;stroke-opacity:1" transform="translate(108.022 .558)scale(.8879)"/></g><g style="stroke:#a7a9ac;stroke-width:.518003;stroke-miterlimit:4;stroke-dasharray:none"><path d="m956.419-5.981-4.67 1.251m5.199-.524-4.697 2.712m5.094-1.852L952.582.37m4.961-3.64L955.11.947" style="fill:none;fill-rule:evenodd;stroke:#a7a9ac;stroke-width:.518003;stroke-linecap:butt;stroke-linejoin:miter;stroke-miterlimit:4;stroke-dasharray:none;stroke-opacity:1" transform="matrix(-.8879 0 0 .8879 1814.158 .558)"/></g><ellipse cx="961.043" cy="-4.929" rx="3.583" ry="3.406" style="opacity:1;fill:#fff;fill-opacity:1;stroke:#60605b;stroke-width:.689901;stroke-linecap:square;stroke-linejoin:miter;stroke-miterlimit:4;stroke-dasharray:none;stroke-dashoffset:6;stroke-opacity:1"/><ellipse cx="-966.527" cy="-7.841" rx="1.725" ry="1.769" style="fill:#000;fill-opacity:1;stroke:#892ca0;stroke-width:.689901;stroke-linecap:square;stroke-linejoin:miter;stroke-miterlimit:4;stroke-dasharray:none;stroke-dashoffset:0;stroke-opacity:1" transform="scale(-1 1)"/><path d="M968.074-11.544a1.97 1.97 0 0 0-1.458-.758 1.97 1.97 0 0 0-1.452.562" style="fill:none;fill-opacity:1;stroke:#000;stroke-width:.689901;stroke-linecap:square;stroke-linejoin:miter;stroke-miterlimit:4;stroke-dasharray:none;stroke-dashoffset:0;stroke-opacity:1"/><g style="stroke-width:.777004;stroke-miterlimit:4;stroke-dasharray:none"><g style="stroke-width:.777004"><path d="m962.306-5.783.1 1.984s1.587 1.423 2.513-.033c0 0-.1-.827-.166-1.091m-2.465-.86-.1 1.984s-1.587 1.423-2.513-.033c0 0 .099-.827.165-1.091" style="fill:none;fill-rule:evenodd;stroke:#000;stroke-width:.777004;stroke-linecap:butt;stroke-linejoin:miter;stroke-miterlimit:4;stroke-dasharray:none;stroke-opacity:1" transform="translate(106.612 -.382)scale(.8879)"/></g></g><path d="M962.572-5.544c-.12-.31-.12-.933-.48-.933-.361 0-.695-.233-1.05-.233-.354 0-.687.233-1.047.233s-.36.622-.481.933c-.12.311 1.529 1.322 1.529 1.322s1.649-1.01 1.529-1.322z" style="fill:gray;fill-opacity:1;stroke:#000;stroke-width:.689901;stroke-linecap:square;stroke-linejoin:miter;stroke-miterlimit:4;stroke-dasharray:none;stroke-dashoffset:0;stroke-opacity:1"/><ellipse cx="955.36" cy="-7.841" rx="1.725" ry="1.769" style="fill:#000;fill-opacity:1;stroke:#892ca0;stroke-width:.689901;stroke-linecap:square;stroke-linejoin:miter;stroke-miterlimit:4;stroke-dasharray:none;stroke-dashoffset:0;stroke-opacity:1"/><ellipse cx="954.785" cy="-8.338" rx=".848" ry=".881" style="fill:#fff;fill-opacity:1;stroke:none;stroke-width:.689901;stroke-linecap:square;stroke-linejoin:miter;stroke-miterlimit:4;stroke-dasharray:none;stroke-dashoffset:0;stroke-opacity:1"/><path d="M953.814-11.544a1.97 1.97 0 0 1 1.458-.758 1.97 1.97 0 0 1 1.452.562" style="fill:none;fill-opacity:1;stroke:#000;stroke-width:.689901;stroke-linecap:square;stroke-linejoin:miter;stroke-miterlimit:4;stroke-dasharray:none;stroke-dashoffset:0;stroke-opacity:1"/><ellipse cx="965.947" cy="-8.338" rx=".848" ry=".881" style="fill:#fff;fill-opacity:1;stroke:none;stroke-width:.689901;stroke-linecap:square;stroke-linejoin:miter;stroke-miterlimit:4;stroke-dasharray:none;stroke-dashoffset:0;stroke-opacity:1"/></g><path d="M948.212 4.293h32.927" style="fill:none;fill-rule:evenodd;stroke:#3c6eb4;stroke-width:1.05833;stroke-linecap:butt;stroke-linejoin:miter;stroke-miterlimit:4;stroke-dasharray:none;stroke-opacity:1" transform="translate(-937.324 24.184)"/><g clip-path="url(#a)" style="stroke-width:1.20412" transform="translate(-772.774 22.76)scale(.83048)"><path d="M958.316 13.737c-.262-1.782-.39-3.72-.873-6.001-.53-2.818-2.322-5.143-4.654-5.995-1.924-.67-5.92-.672-7.613 0-2.332.852-4.124 3.177-4.654 5.995-.484 2.28-.611 4.22-.873 6.001" style="fill:#ccc;fill-opacity:1;fill-rule:evenodd;stroke:#000;stroke-width:.955767;stroke-linecap:butt;stroke-linejoin:miter;stroke-miterlimit:4;stroke-dasharray:none;stroke-opacity:1"/><ellipse cx="954.204" cy="12.162" rx=".988" ry="1.039" style="opacity:1;fill:#e7e8e9;fill-opacity:1;stroke:none;stroke-width:.955767;stroke-linecap:square;stroke-linejoin:miter;stroke-miterlimit:4;stroke-dasharray:none;stroke-dashoffset:6;stroke-opacity:1"/><ellipse cx="944.215" cy="12.162" rx=".988" ry="1.039" style="opacity:1;fill:#e7e8e9;fill-opacity:1;stroke:none;stroke-width:.955767;stroke-linecap:square;stroke-linejoin:miter;stroke-miterlimit:4;stroke-dasharray:none;stroke-dashoffset:6;stroke-opacity:1"/><g style="stroke:#a7a9ac;stroke-width:.810747;stroke-miterlimit:4;stroke-dasharray:none"><path d="m956.419-5.981-4.67 1.251m5.199-.524-4.697 2.712m5.094-1.852L952.582.37m4.961-3.64L955.11.947" style="fill:none;fill-rule:evenodd;stroke:#a7a9ac;stroke-width:.810747;stroke-linecap:butt;stroke-linejoin:miter;stroke-miterlimit:4;stroke-dasharray:none;stroke-opacity:1" transform="matrix(.78652 0 0 .7853 193.685 16.288)"/></g><g style="stroke:#a7a9ac;stroke-width:.810747;stroke-miterlimit:4;stroke-dasharray:none"><path d="m956.419-5.981-4.67 1.251m5.199-.524-4.697 2.712m5.094-1.852L952.582.37m4.961-3.64L955.11.947" style="fill:none;fill-rule:evenodd;stroke:#a7a9ac;stroke-width:.810747;stroke-linecap:butt;stroke-linejoin:miter;stroke-miterlimit:4;stroke-dasharray:none;stroke-opacity:1" transform="matrix(-.78652 0 0 .7853 1705.025 16.288)"/></g><ellipse cx="949.313" cy="11.435" rx="3.174" ry="3.013" style="opacity:1;fill:#fff;fill-opacity:1;stroke:#60605b;stroke-width:.955767;stroke-linecap:square;stroke-linejoin:miter;stroke-miterlimit:4;stroke-dasharray:none;stroke-dashoffset:6;stroke-opacity:1"/><ellipse cx="-954.172" cy="8.86" rx="1.528" ry="1.565" style="fill:#000;fill-opacity:1;stroke:#892ca0;stroke-width:.955767;stroke-linecap:square;stroke-linejoin:miter;stroke-miterlimit:4;stroke-dasharray:none;stroke-dashoffset:0;stroke-opacity:1" transform="scale(-1 1)"/><path d="M955.542 5.584a1.75 1.75 0 0 0-1.292-.67 1.75 1.75 0 0 0-1.286.497" style="fill:none;fill-opacity:1;stroke:#000;stroke-width:.955767;stroke-linecap:square;stroke-linejoin:miter;stroke-miterlimit:4;stroke-dasharray:none;stroke-dashoffset:0;stroke-opacity:1"/><g style="stroke-width:1.21612;stroke-miterlimit:4;stroke-dasharray:none"><g style="stroke-width:1.21612"><path d="m962.306-5.783.1 1.984s1.587 1.423 2.513-.033c0 0-.1-.827-.166-1.091m-2.465-.86-.1 1.984s-1.587 1.423-2.513-.033c0 0 .099-.827.165-1.091" style="fill:none;fill-rule:evenodd;stroke:#000;stroke-width:1.21612;stroke-linecap:butt;stroke-linejoin:miter;stroke-miterlimit:4;stroke-dasharray:none;stroke-opacity:1" transform="matrix(.78652 0 0 .7853 192.436 15.457)"/></g></g><path d="M950.668 10.892c-.107-.275-.107-.826-.426-.826-.32 0-.615-.206-.929-.206s-.609.206-.928.206-.32.55-.426.826 1.354 1.169 1.354 1.169 1.461-.894 1.355-1.17z" style="fill:gray;fill-opacity:1;stroke:#000;stroke-width:.955767;stroke-linecap:square;stroke-linejoin:miter;stroke-miterlimit:4;stroke-dasharray:none;stroke-dashoffset:0;stroke-opacity:1"/><ellipse cx="944.28" cy="8.86" rx="1.528" ry="1.565" style="fill:#000;fill-opacity:1;stroke:#892ca0;stroke-width:.955767;stroke-linecap:square;stroke-linejoin:miter;stroke-miterlimit:4;stroke-dasharray:none;stroke-dashoffset:0;stroke-opacity:1"/><ellipse cx="943.77" cy="8.42" rx=".752" ry=".78" style="fill:#fff;fill-opacity:1;stroke:none;stroke-width:.955767;stroke-linecap:square;stroke-linejoin:miter;stroke-miterlimit:4;stroke-dasharray:none;stroke-dashoffset:0;stroke-opacity:1"/><path d="M942.91 5.584a1.75 1.75 0 0 1 1.291-.67c.473-.02.95.165 1.287.497" style="fill:none;fill-opacity:1;stroke:#000;stroke-width:.955767;stroke-linecap:square;stroke-linejoin:miter;stroke-miterlimit:4;stroke-dasharray:none;stroke-dashoffset:0;stroke-opacity:1"/><ellipse cx="953.762" cy="8.529" rx=".752" ry=".78" style="fill:#fff;fill-opacity:1;stroke:none;stroke-width:.955767;stroke-linecap:square;stroke-linejoin:miter;stroke-miterlimit:4;stroke-dasharray:none;stroke-dashoffset:0;stroke-opacity:1"/></g><path d="m961.972 23.285-19.299-9.233-4.82-20.862 13.287-16.78 21.39-.064 13.384 16.7-4.699 20.89z" style="opacity:1;fill:none;fill-opacity:1;stroke:#892ca0;stroke-width:1.05833;stroke-linecap:round;stroke-linejoin:round;stroke-miterlimit:4;stroke-dasharray:none;stroke-opacity:1" transform="translate(-937.324 24.184)"/><path d="M943.45 8.526h19.83m-10.41 3.967h27.503" style="fill:none;fill-rule:evenodd;stroke:#3c6eb4;stroke-width:1.05833;stroke-linecap:butt;stroke-linejoin:miter;stroke-miterlimit:4;stroke-dasharray:none;stroke-opacity:1" transform="translate(-937.324 24.184)"/><g transform="translate(-936.544 25.067)"><path d="M977.469 11.11c-.233-1.582-.346-3.303-.775-5.328-.471-2.502-2.062-4.567-4.133-5.323-1.708-.595-5.256-.597-6.76 0-2.07.756-3.66 2.821-4.132 5.323-.43 2.025-.542 3.746-.775 5.329" style="fill:#ccc;fill-opacity:1;fill-rule:evenodd;stroke:#000;stroke-width:.79375;stroke-linecap:butt;stroke-linejoin:miter;stroke-miterlimit:4;stroke-dasharray:none;stroke-opacity:1"/><ellipse cx="973.817" cy="9.712" rx=".878" ry=".922" style="opacity:1;fill:#e7e8e9;fill-opacity:1;stroke:none;stroke-width:.79375;stroke-linecap:square;stroke-linejoin:miter;stroke-miterlimit:4;stroke-dasharray:none;stroke-dashoffset:6;stroke-opacity:1"/><ellipse cx="964.948" cy="9.712" rx=".878" ry=".922" style="opacity:1;fill:#e7e8e9;fill-opacity:1;stroke:none;stroke-width:.79375;stroke-linecap:square;stroke-linejoin:miter;stroke-miterlimit:4;stroke-dasharray:none;stroke-dashoffset:6;stroke-opacity:1"/><g style="stroke:#a7a9ac;stroke-width:.758321;stroke-miterlimit:4;stroke-dasharray:none"><path d="m955.746-3.96-4.67 1.252m5.199-.524L951.58-.521" style="fill:none;fill-rule:evenodd;stroke:#a7a9ac;stroke-width:.758321;stroke-linecap:butt;stroke-linejoin:miter;stroke-miterlimit:4;stroke-dasharray:none;stroke-opacity:1" transform="matrix(.69835 0 0 .69727 299.023 11.966)"/></g><g style="stroke:#a7a9ac;stroke-width:.758321;stroke-miterlimit:4;stroke-dasharray:none"><path d="m956.419-5.981-4.67 1.251m5.199-.524-4.697 2.712" style="fill:none;fill-rule:evenodd;stroke:#a7a9ac;stroke-width:.758321;stroke-linecap:butt;stroke-linejoin:miter;stroke-miterlimit:4;stroke-dasharray:none;stroke-opacity:1" transform="matrix(-.69835 0 0 .69727 1640.471 13.376)"/></g><ellipse cx="969.475" cy="9.067" rx="2.818" ry="2.675" style="opacity:1;fill:#fff;fill-opacity:1;stroke:#60605b;stroke-width:.79375;stroke-linecap:square;stroke-linejoin:miter;stroke-miterlimit:4;stroke-dasharray:none;stroke-dashoffset:6;stroke-opacity:1"/><ellipse cx="-973.789" cy="6.78" rx="1.357" ry="1.389" style="fill:#000;fill-opacity:1;stroke:#892ca0;stroke-width:.79375;stroke-linecap:square;stroke-linejoin:miter;stroke-miterlimit:4;stroke-dasharray:none;stroke-dashoffset:0;stroke-opacity:1" transform="scale(-1 1)"/><path d="M975.006 3.872a1.55 1.55 0 0 0-1.147-.595 1.55 1.55 0 0 0-1.142.441" style="fill:none;fill-opacity:1;stroke:#000;stroke-width:.79375;stroke-linecap:square;stroke-linejoin:miter;stroke-miterlimit:4;stroke-dasharray:none;stroke-dashoffset:0;stroke-opacity:1"/><g style="stroke-width:1.13748;stroke-miterlimit:4;stroke-dasharray:none"><g style="stroke-width:1.13748"><path d="m962.306-5.783.1 1.984s1.587 1.423 2.513-.033c0 0-.1-.827-.166-1.091m-2.465-.86-.1 1.984s-1.587 1.423-2.513-.033c0 0 .099-.827.165-1.091" style="fill:none;fill-rule:evenodd;stroke:#000;stroke-width:1.13748;stroke-linecap:butt;stroke-linejoin:miter;stroke-miterlimit:4;stroke-dasharray:none;stroke-opacity:1" transform="matrix(.69835 0 0 .69727 297.445 12.638)"/></g></g><path d="M970.678 8.584c-.095-.244-.095-.733-.378-.733s-.546-.183-.825-.183-.54.183-.824.183-.284.489-.378.733 1.202 1.038 1.202 1.038 1.297-.794 1.203-1.038z" style="fill:gray;fill-opacity:1;stroke:#000;stroke-width:.79375;stroke-linecap:square;stroke-linejoin:miter;stroke-miterlimit:4;stroke-dasharray:none;stroke-dashoffset:0;stroke-opacity:1"/><ellipse cx="965.006" cy="6.78" rx="1.357" ry="1.389" style="fill:#000;fill-opacity:1;stroke:#892ca0;stroke-width:.79375;stroke-linecap:square;stroke-linejoin:miter;stroke-miterlimit:4;stroke-dasharray:none;stroke-dashoffset:0;stroke-opacity:1"/><ellipse cx="964.553" cy="6.389" rx=".667" ry=".692" style="fill:#fff;fill-opacity:1;stroke:none;stroke-width:.79375;stroke-linecap:square;stroke-linejoin:miter;stroke-miterlimit:4;stroke-dasharray:none;stroke-dashoffset:0;stroke-opacity:1"/><path d="M963.79 3.872a1.55 1.55 0 0 1 1.146-.595 1.55 1.55 0 0 1 1.142.441" style="fill:none;fill-opacity:1;stroke:#000;stroke-width:.79375;stroke-linecap:square;stroke-linejoin:miter;stroke-miterlimit:4;stroke-dasharray:none;stroke-dashoffset:0;stroke-opacity:1"/><ellipse cx="973.475" cy="6.48" rx=".667" ry=".692" style="fill:#fff;fill-opacity:1;stroke:none;stroke-width:.79375;stroke-linecap:square;stroke-linejoin:miter;stroke-miterlimit:4;stroke-dasharray:none;stroke-dashoffset:0;stroke-opacity:1"/></g><path d="M950.754 15.139h12.722m-5.314 2.646h10.477" style="fill:none;fill-rule:evenodd;stroke:#3c6eb4;stroke-width:1.05833;stroke-linecap:butt;stroke-linejoin:miter;stroke-miterlimit:4;stroke-dasharray:none;stroke-opacity:1" transform="translate(-937.324 24.184)"/></svg>