<svg xmlns="http://www.w3.org/2000/svg" xmlns:xlink="http://www.w3.org/1999/xlink" width="128" height="128"><linearGradient id="d" x1="12" x2="116" y1="64" y2="64" gradientUnits="userSpaceOnUse"><stop offset="0" stop-color="#135034"/><stop offset=".05" stop-color="#2ec27e"/><stop offset=".1" stop-color="#0f3f29"/><stop offset=".9" stop-color="#1a6e47"/><stop offset=".95" stop-color="#26a269"/><stop offset="1" stop-color="#0e3a25"/></linearGradient><linearGradient id="e" x1="87.238" x2="87.238" y1="109.851" y2="49.759" gradientUnits="userSpaceOnUse"><stop offset="0" stop-color="#208156"/><stop offset="1" stop-color="#2cb56e"/></linearGradient><linearGradient id="a" gradientUnits="userSpaceOnUse"><stop offset="0" stop-color="#28ae6f"/><stop offset="1" stop-color="#33d88b"/></linearGradient><linearGradient xlink:href="#a" id="g" x1="31.247" x2="26.991" y1="20.338" y2="9.321"/><linearGradient id="b" gradientUnits="userSpaceOnUse"><stop offset="0" stop-color="#33d17a"/><stop offset="1" stop-color="#8ff0a4"/></linearGradient><linearGradient xlink:href="#b" id="i" x1="20.185" x2="12.53" y1="23.971" y2="15.347"/><linearGradient id="j" x1="23.822" x2="12.317" y1="199.182" y2="192.747" gradientTransform="rotate(176.093 43.987 139.905)" gradientUnits="userSpaceOnUse"><stop offset="0" stop-color="#28a467"/><stop offset="1" stop-color="#33d88b"/></linearGradient><linearGradient id="c" gradientUnits="userSpaceOnUse"><stop offset="0" stop-color="#238d5d"/><stop offset="1" stop-color="#33d17a"/></linearGradient><linearGradient xlink:href="#c" id="l" x1="39.963" x2="44.85" y1="194.513" y2="184.14" gradientTransform="scale(-1 1)rotate(-89.509 -81.234 171.087)"/><linearGradient xlink:href="#b" id="m" x1="19.626" x2="11.972" y1="200.077" y2="191.453" gradientTransform="rotate(.843 2669.04 879.883)scale(.62877)"/><linearGradient xlink:href="#b" id="n" x1="19.626" x2="11.972" y1="200.077" y2="191.453" gradientTransform="rotate(56.421 99.837 114.54)scale(.63998)"/><linearGradient xlink:href="#b" id="o" x1="19.626" x2="11.972" y1="200.077" y2="191.453" gradientTransform="rotate(94.995 72.598 106.269)scale(.69548)"/><linearGradient xlink:href="#b" id="p" x1="19.626" x2="11.972" y1="200.077" y2="191.453" gradientTransform="rotate(28.874 327.31 258.083)scale(.79392)"/><linearGradient xlink:href="#b" id="q" x1="19.626" x2="11.972" y1="200.077" y2="191.453" gradientTransform="rotate(93.167 106.208 125.307)scale(.95681)"/><linearGradient xlink:href="#b" id="r" x1="19.626" x2="11.972" y1="200.077" y2="191.453" gradientTransform="rotate(110.805 117.037 130.259)scale(.88807)"/><linearGradient xlink:href="#b" id="s" x1="19.626" x2="11.972" y1="200.077" y2="191.453" gradientTransform="rotate(127.162 86.987 141.783)scale(.91347)"/><linearGradient xlink:href="#a" id="t" x1="31.247" x2="26.991" y1="194.726" y2="183.708" gradientTransform="rotate(114.228 78.494 137.847)scale(.85569)"/><linearGradient xlink:href="#a" id="u" x1="31.247" x2="26.991" y1="194.726" y2="183.708" gradientTransform="rotate(77.255 78.864 133.95)scale(.62834)"/><linearGradient xlink:href="#a" id="v" x1="31.247" x2="26.991" y1="194.726" y2="183.708" gradientTransform="rotate(102.145 101.4 150.372)scale(.9366)"/><linearGradient xlink:href="#a" id="w" x1="31.247" x2="26.991" y1="194.726" y2="183.708" gradientTransform="rotate(98.359 89.412 132.137)scale(.76502)"/><linearGradient xlink:href="#a" id="x" x1="31.247" x2="26.991" y1="194.726" y2="183.708" gradientTransform="rotate(-24.141 -297.417 96.214)scale(.8816)"/><linearGradient xlink:href="#a" id="y" x1="31.247" x2="26.991" y1="194.726" y2="183.708" gradientTransform="rotate(-142.278 26.915 110.255)scale(.68308)"/><linearGradient xlink:href="#c" id="z" x1="39.963" x2="44.85" y1="194.513" y2="184.14" gradientTransform="rotate(-86.358 -23.673 94.637)scale(.73329)"/><linearGradient xlink:href="#c" id="A" x1="39.963" x2="44.85" y1="194.513" y2="184.14" gradientTransform="rotate(-24.09 -302.254 99.609)scale(.93042)"/><linearGradient xlink:href="#c" id="B" x1="39.963" x2="44.85" y1="194.513" y2="184.14" gradientTransform="rotate(13.951 462.754 221.036)scale(.67322)"/><linearGradient xlink:href="#c" id="C" x1="39.963" x2="44.85" y1="194.513" y2="184.14" gradientTransform="scale(-.8191 .8191)rotate(-35.855 -216.63 244.183)"/><linearGradient xlink:href="#c" id="D" x1="39.963" x2="44.85" y1="194.513" y2="184.14" gradientTransform="rotate(-6.852 -609.27 -286.07)scale(.75038)"/><linearGradient xlink:href="#c" id="E" x1="39.963" x2="44.85" y1="194.513" y2="184.14" gradientTransform="rotate(97.933 71.26 135.633)scale(.69884)"/><linearGradient xlink:href="#c" id="F" x1="39.963" x2="44.85" y1="194.513" y2="184.14" gradientTransform="rotate(-116.259 7.652 111.154)scale(.67407)"/><linearGradient xlink:href="#c" id="G" x1="39.963" x2="44.85" y1="194.513" y2="184.14" gradientTransform="rotate(-136.331 10.438 99.489)scale(.70433)"/><linearGradient xlink:href="#c" id="H" x1="39.963" x2="44.85" y1="194.513" y2="184.14" gradientTransform="rotate(42.294 197.916 137.199)scale(.72934)"/><linearGradient xlink:href="#c" id="I" x1="39.963" x2="44.85" y1="194.513" y2="184.14" gradientTransform="rotate(-13.322 -407.484 -289.007)scale(.6488)"/><linearGradient xlink:href="#c" id="J" x1="39.963" x2="44.85" y1="194.513" y2="184.14" gradientTransform="rotate(24.737 429.607 122.57)scale(.97843)"/><linearGradient xlink:href="#c" id="K" x1="39.963" x2="44.85" y1="194.513" y2="184.14" gradientTransform="rotate(39.119 264.76 155.056)scale(.8612)"/><linearGradient xlink:href="#c" id="L" x1="39.963" x2="44.85" y1="194.513" y2="184.14" gradientTransform="rotate(3.584 1867.8 642.092)scale(.68446)"/><linearGradient xlink:href="#c" id="M" x1="39.963" x2="44.85" y1="194.513" y2="184.14" gradientTransform="rotate(100.139 64.304 124.343)scale(.60224)"/><linearGradient xlink:href="#c" id="N" x1="39.963" x2="44.85" y1="194.513" y2="184.14" gradientTransform="rotate(104.102 51.97 123.053)scale(.60736)"/><linearGradient xlink:href="#c" id="O" x1="42.582" x2="35.337" y1="184.847" y2="195.86" gradientTransform="rotate(124.678 42.466 119.033)scale(.62952)"/><linearGradient xlink:href="#c" id="P" x1="39.963" x2="44.85" y1="194.513" y2="184.14" gradientTransform="rotate(42.514 148.485 207.254)scale(.75402)"/><linearGradient xlink:href="#c" id="Q" x1="39.963" x2="44.85" y1="194.513" y2="184.14" gradientTransform="rotate(99.467 111.063 168.995)scale(1.04296)"/><linearGradient xlink:href="#c" id="R" x1="39.963" x2="44.85" y1="194.513" y2="184.14" gradientTransform="rotate(86.589 134.872 179.415)scale(1.078)"/><linearGradient xlink:href="#c" id="S" x1="39.963" x2="44.85" y1="194.513" y2="184.14" gradientTransform="rotate(81.275 83.351 144.053)scale(.68005)"/><linearGradient xlink:href="#c" id="T" x1="39.963" x2="44.85" y1="194.513" y2="184.14" gradientTransform="rotate(92.5 74.718 135.905)scale(.7629)"/><linearGradient xlink:href="#c" id="U" x1="39.963" x2="44.85" y1="194.513" y2="184.14" gradientTransform="rotate(40.399 286.848 231.122)scale(1.1836)"/><linearGradient xlink:href="#c" id="V" x1="39.963" x2="44.85" y1="194.513" y2="184.14" gradientTransform="rotate(148.75 36.274 119.844)scale(.6902)"/><linearGradient xlink:href="#c" id="W" x1="42.582" x2="34.161" y1="184.847" y2="192.033" gradientTransform="rotate(114.448 86.314 155.782)scale(1.10563)"/><linearGradient xlink:href="#c" id="X" x1="39.963" x2="44.85" y1="194.513" y2="184.14" gradientTransform="rotate(-161.251 23.472 155.49)scale(1.07013)"/><linearGradient xlink:href="#c" id="Y" x1="39.963" x2="44.85" y1="194.513" y2="184.14" gradientTransform="rotate(36.664 147.063 206.739)scale(.7199)"/><linearGradient xlink:href="#c" id="Z" x1="39.963" x2="44.85" y1="194.513" y2="184.14" gradientTransform="rotate(133.204 56.698 121.339)scale(.7578)"/><linearGradient xlink:href="#c" id="aa" x1="39.963" x2="44.85" y1="194.513" y2="184.14" gradientTransform="rotate(39.724 105.175 180.736)scale(.48673)"/><linearGradient xlink:href="#c" id="ab" x1="39.963" x2="44.85" y1="194.513" y2="184.14" gradientTransform="rotate(72.924 172.946 200.16)scale(1.36154)"/><linearGradient xlink:href="#c" id="ac" x1="39.963" x2="44.85" y1="194.513" y2="184.14" gradientTransform="rotate(104.178 113.695 185.361)scale(1.29821)"/><linearGradient xlink:href="#c" id="ad" x1="39.963" x2="44.85" y1="194.513" y2="184.14" gradientTransform="rotate(36.125 185.449 168.203)scale(.84518)"/><linearGradient xlink:href="#c" id="ae" x1="39.959" x2="42.219" y1="195.744" y2="190.932" gradientTransform="rotate(86.589 130.905 188.684)scale(1.078)"/><path fill="url(#d)" d="M20 22h88a8 8 0 0 1 8 8v78a8 8 0 0 1-8 8H20a8 8 0 0 1-8-8V30a8 8 0 0 1 8-8m0 0"/><path fill="#8ff0a4" d="M20 12h88c4.418 0 8 3.73 8 8.332v75.375c0 4.606-3.582 8.336-8 8.336H20c-4.418 0-8-3.73-8-8.336V20.332C12 15.73 15.582 12 20 12m0 0"/><path fill="url(#e)" d="M20 14h88a8 8 0 0 1 8 8v80a8 8 0 0 1-8 8H20a8 8 0 0 1-8-8V22a8 8 0 0 1 8-8m0 0"/><path fill="none" stroke="#1b734b" stroke-linecap="round" stroke-width="8" d="m31.852 98.875 22.039-21-22.04-21"/><path fill="none" stroke="#fff" stroke-linecap="round" stroke-width="8" d="m31.852 95.266 22.039-21-22.04-21"/><path fill-opacity=".239" d="M24.078 6.754c-.226 5.562-.871 16.68 7.703 16.023l.008.012.348.012.117-.34q-.013-.01-.02-.02c2.774-5.656-1.129-10.793-8.156-15.687m87.086.273c-4.086 3.766-6.14 7.414-3.86 10.805l-.011.012.105.21.223-.038c.004 0 .004-.004.008-.008 5.566-.336 4.172-7.426 3.535-10.98m-12.93 3.778c.133 4.418.25 13.257 7 12.257l.012.008.274-.011.074-.278-.02-.011c1.883-4.637-1.5-8.485-7.34-11.965m-31.39.445c-5.278 2.547-8.473 5.598-7.207 9.719l-.016.011.043.243.234.03.008-.003c5.723 1.371 6.492-6.219 6.938-10m-10.192.64c-8.351.672-14.183 3.094-14.625 9.243-.007.004-.02.004-.027.004l-.066.343.296.165.016-.004c6.922 4.777 11.86-4.938 14.406-9.75m27.133 1.825c-4.648-.047-8.031 1.367-9.316 5.203h-.02l-.136.277.218.203h.012c4.86 5.59 11.191-1.613 14.418-5.16-1.852-.32-3.586-.508-5.176-.523m35.906 1.46c-4.87.84-14.644 2.36-12.472 9.68q-.007.006-.008.012l.055.301.316.039.012-.02c5.43 1.352 9.16-2.996 12.097-10.011m-110.636.31c2.191 3.702 5.98 10.331 10.746 10.738 1.996 4.738 5.37 11.078 11.097 7.968q.006-.001.012.004l.285-.117-.03-.316-.02-.004c.148-4.309-2.817-6.914-7.618-8.52q.352-.221.707-.496.005.005.016.004l.297-.18-.086-.347-.027-.004c-.75-6.258-6.82-8.445-15.38-8.73m57.972 6.18c-5.558 1.53-9.187 3.917-8.695 8.128-.004.004-.012.004-.016.008l-.004.242.223.07q.006.001.012-.004c5.293 2.336 7.379-4.863 8.48-8.445m6.989 1.015c-3.434-.028-5.98 1.09-7.137 4h-.02l-.129.23.176.18h.012c3.844 4.953 9.535-.84 12.43-3.688-1.938-.445-3.73-.707-5.332-.722m-33.97.43c-4.745 6.398-6.667 12.085-2.542 16.253l-.012.02.203.265.305-.113.008-.012c7.754-1.964 3.89-11.578 2.039-16.414M54.88 25.3c-4.727 2.454-14.266 7.204-9.649 14.013l-.003.011.156.293.34-.062c0-.008 0-.02.004-.028 6.015-.382 8.43-6.062 9.152-14.226m-44.246 4.747c2.832 4.789 8.34 14.469 15.18 9.258.003 0 .007.004.011.004l.297-.184-.086-.348q-.01.001-.027-.004c-.746-6.253-6.817-8.445-15.375-8.726m23.515 3.648c-2.464 3.84-7.52 11.434-1.187 14.516q-.001.006.004.012l.238.152.227-.191-.008-.024c4.3-2.847 3.668-8.097.726-14.465m18.254 4.946c-3.492 1.672-10.53 4.902-7.336 9.957v.007l.106.215.246-.035c0-.008.004-.012.004-.02 4.379-.136 6.266-4.21 6.98-10.124M41.56 41.055c-1.555 3.207-4.766 9.57.437 11.37v.009l.203.093.156-.168a.03.03 0 0 1-.007-.015c3.07-2.614 2.086-6.625-.79-11.29m-23.532.597c2.723 5.66 5.985 9.082 10.403 7.735l.011.02.262-.048.031-.254s-.004-.003-.004-.007c1.473-6.13-6.652-6.961-10.703-7.446m37 4.45c-2.59 1.586-7.824 4.675-4.918 8.359 0 .004-.004.004-.004.008l.102.16.191-.05v-.017c3.407-.46 4.547-3.789 4.63-8.46m15.278 0c-5.555.355-16.676.875-15.13 9.332l-.01.011.026.348.352.078.012-.02c5.918 2.169 10.617-2.25 14.75-9.75m-60.27 1.937c2.836 4.793 8.34 14.469 15.18 9.258q.006.005.012.004l.3-.18-.09-.348-.023-.003c-.75-6.258-6.82-8.446-15.379-8.73m60.555 8.367c-5.563.149-16.7.258-15.469 8.766q-.007.006-.008.012l.012.347.348.094.015-.023c5.832 2.39 10.692-1.852 15.102-9.196m26.555.672c-2.457.016-4.247.82-4.961 2.887h-.012l-.078.156.12.117h.009c2.71 3.188 6.332-.847 8.175-2.832-1.171-.215-2.265-.332-3.253-.328m-17.563.149c-5.187 3.796-8.023 7.718-5.84 11.914q-.011.006-.015.011l.093.254.258-.015q.004-.001.008-.008c6.441.344 5.766-7.988 5.496-12.156m23.914 2.597c-4.598-.043-9.312 1.035-9.297 6.406-.004.004-.008.004-.008.008l-.035.313.305.133.016-.02c4.968 2.91 9.91-.3 14.84-6.375-1.598-.184-3.696-.445-5.82-.465m-80.433.656c-3.11.004-6.543 3.317-8.579 5.223 5.844 1.492 10.38 1.211 12.118-2.875.007.004.015 0 .02.004l.128-.219-.168-.18h-.008c-1.039-1.41-2.25-1.953-3.511-1.953m64.82.883c-3.281 0-6.29.989-6.559 4.856-.004 0-.004.004-.008.004l-.046.261.246.13q.005-.007.015-.016c3.973 2.73 8.293.347 12.781-4.426-1.722-.324-4.144-.809-6.43-.809m24.176 5.754c-5.973-.031-10.348 1.871-12.149 6.88q-.018.001-.031-.005l-.192.38.293.288h.016c6.504 7.824 15.426-1.879 19.969-6.652-2.852-.555-5.508-.88-7.906-.89m-26.852 1.164c-3.441.63-10.344 1.774-8.754 6.938q-.002.007-.004.008l.043.214.223.028c.004-.004.004-.012.008-.016 3.851.918 6.46-2.187 8.484-7.172m6 .696c-3.5.023-6.55 1.246-7.125 5.441-.004.004-.008.004-.012.008l-.078.316.29.172.019-.016c4.633 3.66 10.105 1.098 15.972-4.375-2.394-.617-5.914-1.566-9.066-1.546m-19.695.894c-5.184-.039-8.907 1.445-10.059 5.594h-.023l-.118.281.227.192h.012c5.047 5.226 10.886-2.16 13.863-5.801a35 35 0 0 0-3.902-.266M9.715 70.906c2.832 4.79 8.34 14.469 15.176 9.258l.015.004.297-.18-.086-.351q-.017.001-.027-.004c-.746-6.254-6.817-8.445-15.375-8.727m67.879 5.235c-2.254.015-4.2.976-5.2 3.738q-.003.005-.007.004l-.133.27.226.21q.007-.006.02-.011c3.441 4.152 8.816 2.91 15.105-.856-2.558-1.277-6.628-3.379-10.011-3.355m19.355 1.695c-4.148.027-7.125 1.3-8.097 4.687h-.016l-.102.239.188.164h.012c4.257 4.488 9.289-1.754 11.855-4.828-1.363-.176-2.648-.27-3.84-.262m9.477.207c-3.551-.043-6.188 1.102-7.395 4.11q-.012.001-.02-.005l-.132.239.183.187h.008c3.957 5.14 9.864-.828 12.868-3.761-2-.47-3.856-.75-5.512-.77m-41.797.168c-1.395-.016-2.84.504-4.297 1.781h-.012l-.285.2.11.34.027.003c1.172 6.192 7.375 7.961 15.937 7.66-2.445-3.55-6.687-9.922-11.48-9.984m-7.348 3.781-.191.18v.012c-5.211 3.914.715 9.925 3.625 12.976 1.555-6.3 1.207-11.176-3.2-13.012q-.001-.005.005-.02zm-40.527.102c1.738 3.035 5.11 9.172 9.457 5.96h.012l.187-.109-.05-.222h-.016c-.414-3.942-4.211-5.371-9.59-5.63m71.055 2.07c-.875.02-1.75.266-2.633.762l-.012-.012-.227.094.02.234c.004 0 .004.004.008.008-.117 5.844 7.406 4.984 11.176 4.617-2.743-3.504-5.512-5.765-8.332-5.703m-8.383.012a5.6 5.6 0 0 0-1.172.097.03.03 0 0 1-.008-.015l-.219.012-.05.203.003.007c-1.77 4.868 4.782 6.297 8.043 7.07-1.511-4.34-3.535-7.277-6.597-7.374m-64.375.808c-2.582-.015-5.649 1.336-7.61 2.176 4.762 3.262 8.934 4.496 11.836 1.395a.03.03 0 0 0 .016.007l.187-.156-.09-.215c-.003 0-.007-.004-.007-.004-.707-2.394-2.38-3.19-4.332-3.203m86.199.04c-1.203 0-2.437.269-3.707.835q-.007-.01-.02-.023l-.37.113v.375q0 .006.007.012c-1.043 9.207 10.961 8.953 16.961 8.926-3.973-6.176-8.191-10.23-12.871-10.239m-35.996 3.39a6.7 6.7 0 0 0-1.867.348l-.012-.02-.27.055-.027.262q.001.006.008.011c-1.406 6.407 7.059 7.102 11.285 7.52-2.535-5.008-5.45-8.297-9.117-8.176m-15.016.277-.183.34.004.012c-5.36 7.852 5.648 13.375 11.101 16.227-.808-9.434-3.574-16.008-10.527-16.473 0-.012-.004-.02-.004-.031zm27.66 1.645q-.656.006-1.355.164a.03.03 0 0 1-.008-.016l-.25.024-.05.238.003.008c-1.836 5.723 5.825 7.09 9.64 7.84-1.944-4.965-4.425-8.278-7.98-8.258m-56.695.441C17.535 90.676 13.418 93 9.051 96.7c5.316 1.649 15.898 5.13 17.469-3.328l.011-.004.098-.332-.297-.203q-.012.011-.023.016c-1.579-1.371-3.286-2.024-5.106-2.07m69.387.192a9.7 9.7 0 0 0-2.028.191l-.011-.023-.375.027-.086.352.008.011c-2.97 8.461 8.406 10.809 14.07 12.078-2.703-7.484-6.273-12.527-11.578-12.636m-26.621 4.61q-.251.01-.508.038c-.004-.004-.004-.008-.008-.012l-.219-.003-.062.199q-.001.007.004.008c-2.125 4.773 4.367 6.671 7.597 7.675-1.304-4.793-3.316-8.004-6.804-7.906m-18.531.171-.204.133q-.001.01.004.02c-3.867 1.894-3.902 6.3-2.152 11.882 2.45-2.91 7.441-8.644 2.539-11.875l-.004-.012zm61.332 1.953c-1.204-.004-2.438.27-3.704.832-.007-.008-.011-.015-.02-.023l-.37.113V99q.001.006.008.012c-1.043 9.21 10.96 8.953 16.96 8.93-3.976-6.18-8.19-10.231-12.874-10.239M79.926 99.11c-2.48-.074-4.856.676-7.106 2.418q-.016-.01-.03-.023l-.423.25.11.457c.003.004.011.008.015.012 1.469 11.613 16.121 7.722 23.48 5.898-5.644-5.371-11.054-8.855-16.046-9.012m-56.528.149c-5.77.066-9.058 8.629-10.921 13.258 9.007-1.684 15.078-4.98 14.855-11.72.008-.003.02-.003.027-.007l.036-.387-.344-.14c-.004.004-.008.004-.012.008-1.312-.715-2.523-1.028-3.64-1.012m26.934 1.781-.137.172v.008c-3.797 3.855 1.813 8.062 4.578 10.21.504-5.367-.382-9.327-4.23-10.292v-.016zm-11.953.492-.211.11q-.005.004-.004.007c-5.527 2.165-1.793 8.883.016 12.274 2.902-5.149 3.789-9.512.367-12.2.004-.003.004-.011.008-.015zm26.297 2.29c-.352.011-.715.042-1.086.081l-.012-.03-.469-.009-.136.43c0 .008.004.012.007.02-4.546 10.19 9.32 14.265 16.22 16.421-2.774-10.246-7.067-17.109-14.524-16.914m0 0"/><path fill="url(#g)" d="M24 5.613c7.156 4.985 11.078 10.219 8 16-8.89.938-8.23-10.375-8-16m0 0"/><path fill="#218959" d="M26.023 9.66c1.575 4.121 2.254 8.582 5.688 11.988l.348.012.117-.34c-3.473-2.855-4.336-7.605-6.153-11.66m0 0"/><path fill="url(#i)" d="M8.977 14.344c8.718.289 14.855 2.55 15.418 9.074-6.95 5.625-12.551-4.227-15.418-9.074m0 0"/><path fill="#2ec27e" d="M12.875 16.64c3.563 2.598 6.563 5.977 11.293 6.965l.3-.18-.09-.347c-4.464-.508-7.773-4.023-11.503-6.437m0 0"/><path fill="#33d17a" d="M8.973 95.559c6.656-5.637 12.722-8.082 17.52-3.621-1.376 8.832-12.141 5.289-17.52 3.62m0 0"/><path fill="#2ec27e" d="M13.406 94.645c4.383-.465 8.871.027 13.047-2.418l.098-.332-.297-.204c-3.652 2.625-8.461 2.239-12.848 2.954m0 0"/><path fill="#33d17a" d="M9.637 69.762c8.715.289 14.851 2.55 15.414 9.074C18.1 84.46 12.5 74.609 9.637 69.762m0 0"/><path fill="#2ec27e" d="M13.531 72.063c3.567 2.597 6.563 5.972 11.297 6.96l.297-.18-.086-.347c-4.469-.508-7.773-4.02-11.508-6.433m0 0"/><path fill="#33d17a" d="M9.957 46.898c8.719.29 14.856 2.551 15.418 9.075-6.95 5.625-12.55-4.227-15.418-9.075m0 0"/><path fill="#2ec27e" d="M13.855 49.195c3.563 2.602 6.56 5.977 11.293 6.965l.297-.18-.086-.347c-4.468-.508-7.773-4.02-11.504-6.438m0 0"/><path fill="#33d17a" d="M10.555 28.902c8.715.29 14.851 2.551 15.414 9.075-6.95 5.625-12.547-4.227-15.414-9.075m0 0"/><path fill="#2ec27e" d="M14.453 31.2c3.563 2.6 6.559 5.976 11.293 6.964l.297-.18-.086-.347c-4.469-.508-7.773-4.02-11.504-6.438m0 0"/><path fill="#33d17a" d="M54.945 44.957c-.078 4.758-1.257 8.129-4.812 8.492-3.13-3.742 2.195-6.883 4.812-8.492m0 0"/><path fill="#2ec27e" d="M53.727 47.105c-1.387 1.965-3.2 3.633-3.7 6.223l.102.16.187-.05c.239-2.442 2.125-4.278 3.41-6.333m0 0"/><path fill="#33d17a" d="M70.512 55.266c-4.489 7.476-9.45 11.742-15.422 9.062-1.54-8.805 9.793-8.91 15.422-9.062m0 0"/><path fill="#2ec27e" d="M66.61 57.559c-4.005 1.847-8.41 2.828-11.575 6.484l.012.344.348.097c2.613-3.66 7.292-4.84 11.214-6.925m0 0"/><path fill="url(#j)" d="M76.027 87.055c-8.715.304-14.992-1.532-15.996-8.004 6.547-6.082 12.809 3.363 15.996 8.004m0 0"/><path fill="#2ec27e" d="M71.984 85.027c-3.734-2.351-6.953-5.511-11.742-6.18l-.285.2.11.344c4.492.203 8.03 3.48 11.917 5.636m0 0"/><path fill="url(#l)" d="M70.227 44.957c-4.207 7.64-9.004 12.086-15.075 9.633-1.863-8.742 9.457-9.274 15.075-9.633m0 0"/><path fill="#26a269" d="M66.414 47.395c-3.934 1.996-8.3 3.136-11.328 6.91l.027.347.348.078c2.477-3.75 7.11-5.105 10.953-7.335m0 0"/><path fill="url(#m)" d="M16.676 80.953c5.476.262 9.316 1.738 9.61 5.844-4.419 3.473-7.852-2.774-9.61-5.844m0 0"/><path fill="#2ec27e" d="M19.105 82.434c2.215 1.664 4.07 3.816 7.04 4.48l.187-.11-.05-.222c-2.805-.36-4.852-2.598-7.177-4.148m0 0"/><path fill="url(#n)" d="M41.48 39.914c2.93 4.75 3.899 8.824.618 11.43-5.457-1.711-2.188-8.188-.618-11.43m0 0"/><path fill="#2ec27e" d="M41.633 42.805c-.125 2.82-.863 5.613.285 8.488l.203.094.156-.168c-1.312-2.563-.609-5.57-.644-8.414m0 0"/><path fill="url(#o)" d="M52.324 37.5c-.73 6.02-2.668 10.137-7.222 10.129-3.473-5.152 3.691-8.438 7.222-10.129m0 0"/><path fill="#2ec27e" d="M50.496 40.063c-2.016 2.308-4.539 4.183-5.512 7.402l.11.215.246-.04c.62-3.062 3.258-5.14 5.156-7.578m0 0"/><path fill="url(#p)" d="M98.152 9.664c5.95 3.543 9.352 7.469 7.243 12.219-6.989 1.246-7.106-7.75-7.243-12.219m0 0"/><path fill="#2ec27e" d="M99.984 12.754c1.48 3.176 2.27 6.672 5.18 9.172l.277-.008.075-.277c-2.914-2.067-3.864-5.778-5.532-8.887m0 0"/><path fill="url(#q)" d="M54.8 24.16c-.737 8.313-3.222 14.055-9.484 14.246-5.004-6.933 4.704-11.765 9.485-14.246m0 0"/><path fill="#2ec27e" d="M52.398 27.762c-2.671 3.265-6.054 5.953-7.25 10.422l.157.293.34-.063c.718-4.242 4.25-7.215 6.753-10.652m0 0"/><path fill="url(#r)" d="M119.613 14.035c-2.992 7.145-6.804 11.528-12.398 9.934-2.477-7.54 7.469-9.082 12.398-9.934m0 0"/><path fill="#2ec27e" d="M116.477 16.547c-3.282 2.137-7.032 3.558-9.344 7.18l.055.3.316.04c1.832-3.551 5.789-5.188 8.973-7.52m0 0"/><path fill="url(#s)" d="M109.238 59.148c-5.023 6.184-10.054 9.407-15.113 6.215-.262-8.16 10.004-6.804 15.113-6.215m0 0"/><path fill="#2ec27e" d="M105.414 60.719c-3.86 1.156-7.969 1.476-11.3 4.379l-.036.312.3.133c2.837-2.977 7.22-3.441 11.036-4.824m0 0"/><path fill="url(#t)" d="M87.527 78.355c-6.402 3.836-11.867 5.055-15.297.625 2.391-7.265 10.989-2.78 15.297-.625m0 0"/><path fill="#218959" d="M83.656 78.512c-3.765-.215-7.488-1.254-11.351.23l-.13.266.223.21c3.45-1.706 7.457-.71 11.258-.706m0 0"/><path fill="url(#u)" d="M85.129 67.137c-2.063 5.078-4.727 8.207-8.695 7.12-1.809-5.316 5.214-6.48 8.695-7.12m0 0"/><path fill="#218959" d="M82.93 68.938c-2.309 1.539-4.95 2.574-6.559 5.148l.04.215.226.023c1.27-2.523 4.058-3.71 6.293-5.386m0 0"/><path fill="url(#v)" d="M100.195 69.383c-5.972 5.57-11.539 8.129-16.226 4.172.89-8.325 11.12-5.493 16.226-4.172m0 0"/><path fill="#218959" d="M96.09 70.438c-4.082.628-8.3.374-12.098 2.847l-.078.317.29.171c3.3-2.617 7.816-2.472 11.886-3.335m0 0"/><path fill="url(#w)" d="M94.234 61.031c-4.57 4.864-8.968 7.246-13 4.274.278-6.832 8.766-5.075 13-4.274m0 0"/><path fill="#218959" d="M90.945 62.11c-3.293.734-6.746.753-9.707 2.972l-.047.262.246.129c2.547-2.313 6.235-2.438 9.508-3.364m0 0"/><path fill="url(#x)" d="M18.848 22.934c7.554 1.43 12.597 4.226 12.203 9.988-6.813 3.96-10.36-5.379-12.203-9.988m0 0"/><path fill="#218959" d="M21.934 25.46c2.753 2.747 4.906 6.09 8.898 7.595l.281-.118-.027-.316c-3.824-1.047-6.23-4.55-9.152-7.16m0 0"/><path fill="url(#y)" d="M43.008 106.645c-1.785-5.684-1.715-10.149 2.363-11.989 5.195 3.207.113 9.047-2.363 11.989m0 0"/><path fill="#218959" d="M43.605 103.613c.872-2.883 2.372-5.578 1.938-8.855l-.184-.149-.203.133c.68 2.996-.836 5.922-1.55 8.871m0 0"/><path fill="url(#z)" d="M17.95 40.512c2.769 5.761 6.105 9.21 10.648 7.66 1.715-6.328-6.551-7.168-10.649-7.66m0 0"/><path fill="#26a269" d="M20.64 42.45c2.801 1.62 5.95 2.632 8.016 5.515l-.031.254-.262.043c-1.66-2.848-4.996-4.024-7.722-5.813m0 0"/><path fill="url(#A)" d="M39.969 21.969c-4.836 6.515-6.742 12.297-2.313 16.48 8.117-1.804 4.184-11.59 2.313-16.48m0 0"/><path fill="#26a269" d="M39.387 26.137c-.172 4.097.554 8.238-1.465 12.258l-.305.113-.203-.266c2.219-3.547 1.57-7.988 1.973-12.105m0 0"/><path fill="url(#B)" d="M66.95 20.523c-5.66 1.559-9.325 4.004-8.669 8.364 5.434 2.59 7.551-4.739 8.668-8.364m0 0"/><path fill="#26a269" d="M64.758 22.64c-1.926 2.262-3.356 4.942-6.301 6.333l-.223-.07.004-.243c2.844-1.035 4.457-3.855 6.52-6.02m0 0"/><path fill="url(#C)" d="M34.07 32.555c2.996 6.484 3.602 11.808-.965 14.62-6.671-3.01-1.527-10.737.965-14.62m0 0"/><path fill="#26a269" d="M33.824 36.254c-.59 3.562-1.957 7-.941 10.828l.242.152.223-.191c-1.274-3.457.082-7.172.476-10.79m0 0"/><path fill="url(#D)" d="M79.504 56.086c-5.281 3.863-8.133 7.86-5.723 12.144 6.688.547 5.996-7.93 5.723-12.144m0 0"/><path fill="#26a269" d="M78.059 59.156c-1.11 3.121-1.543 6.48-4.059 9.094l-.258.016-.094-.254c2.555-2.203 3.118-5.778 4.41-8.856m0 0"/><path fill="url(#E)" d="M85.8 97.453c-2.222-5.676-5.144-9.191-9.573-8.039-2.082 5.887 5.714 7.281 9.574 8.04m0 0"/><path fill="#26a269" d="M83.379 95.418c-2.543-1.738-5.465-2.926-7.223-5.813l.047-.238.25-.023c1.379 2.824 4.465 4.183 6.926 6.074m0 0"/><path fill="url(#F)" d="M7.363 86.02c4.848 3.32 9.086 4.543 11.996 1.222-1.53-5.828-8.504-2.71-11.996-1.222m0 0"/><path fill="#26a269" d="M10.398 86.328c2.973.008 5.946-.629 8.915.723l.09.215-.188.156c-2.63-1.508-5.828-.918-8.817-1.094m0 0"/><path fill="url(#G)" d="M14.406 64.563c5.953 1.523 10.547 1.199 12.211-3.102-3.59-5.168-9.316.39-12.21 3.102m0 0"/><path fill="#26a269" d="M17.496 63.777c2.922-1.054 5.613-2.75 9.008-2.488l.164.184-.125.218c-3.121-.539-6.05 1.188-9.047 2.086m0 0"/><path fill="url(#H)" d="M79.27 22.262c-6.2-1.426-10.95-.98-12.563 3.515 3.844 5.262 9.637-.636 12.563-3.515m0 0"/><path fill="#26a269" d="M76.094 23.152c-3 1.164-5.742 2.985-9.266 2.797l-.176-.183.125-.227c3.246.477 6.235-1.383 9.317-2.387m0 0"/><path fill="url(#I)" d="M111.086 5.887c-4.16 3.836-6.219 7.547-3.734 10.992 5.796-.18 4.378-7.395 3.734-10.992m0 0"/><path fill="#26a269" d="M110.145 8.668c-.653 2.785-.696 5.715-2.602 8.207l-.223.04-.105-.212c1.98-2.14 2.117-5.27 2.93-8.035m0 0"/><path fill="url(#J)" d="M56.574 10.75c-8.508.684-14.402 3.18-14.648 9.582 7.05 5.172 12.07-4.71 14.648-9.582m0 0"/><path fill="#26a269" d="M52.871 13.176c-3.363 2.703-6.137 6.14-10.719 7.328l-.297-.164.067-.344c4.344-.703 7.414-4.289 10.95-6.82m0 0"/><path fill="url(#K)" d="M88.883 13.098c-7.403-1.278-12.973-.442-14.586 4.965 4.879 5.953 11.32-1.38 14.586-4.965m0 0"/><path fill="#26a269" d="M85.191 14.355c-3.457 1.57-6.57 3.895-10.738 3.903l-.219-.203.133-.278c3.86.352 7.258-2.035 10.824-3.422m0 0"/><path fill="url(#L)" d="M66.766 10.11c-5.375 2.593-8.59 5.706-7.137 9.945 5.906 1.597 6.684-6.118 7.137-9.946m0 0"/><path fill="#26a269" d="M64.96 12.625c-1.507 2.613-2.452 5.555-5.14 7.488l-.234-.031-.043-.242c2.656-1.555 3.754-4.668 5.418-7.215m0 0"/><path fill="url(#M)" d="M85.945 90.41c-1.726-4.96-4.125-8.086-7.976-7.242-1.992 5.004 4.676 6.46 7.976 7.242m0 0"/><path fill="#26a269" d="M83.926 88.578c-2.133-1.582-4.61-2.703-6.028-5.246l.051-.203.219-.012c1.09 2.477 3.703 3.75 5.758 5.461m0 0"/><path fill="url(#N)" d="M70.691 102.344c-1.39-5.114-3.586-8.422-7.52-7.84-2.35 4.894 4.255 6.824 7.52 7.84m0 0"/><path fill="#26a269" d="M68.79 100.36c-2.036-1.743-4.45-3.04-5.7-5.7l.066-.2h.219c.926 2.571 3.465 4.032 5.414 5.9m0 0"/><path fill="url(#O)" d="M54.695 110.29c.512-5.466-.414-9.478-4.445-10.349-4.062 3.895 1.645 8.176 4.445 10.348m0 0"/><path fill="#26a269" d="M53.57 107.672c-1.34-2.43-3.21-4.57-3.453-7.606l.133-.168.215.079c-.04 2.832 1.89 5.175 3.105 7.695m0 0"/><path fill="url(#P)" d="M111.86 77.672c-6.403-1.5-11.317-1.059-13.005 3.582 3.957 5.457 9.965-.617 13.004-3.582m0 0"/><path fill="#26a269" d="M108.57 78.578c-3.101 1.195-5.949 3.063-9.59 2.856l-.18-.188.134-.238c3.351.508 6.445-1.403 9.636-2.43m0 0"/><path fill="url(#Q)" d="M102.09 102.465C99 93.91 94.78 88.55 88.125 90.09c-3.34 8.703 8.234 11.09 13.965 12.375m0 0"/><path fill="#26a269" d="M98.559 99.336c-3.727-2.695-8.04-4.586-10.547-8.961l.082-.355.375-.024c1.941 4.27 6.492 6.418 10.09 9.34m0 0"/><path fill="url(#R)" d="M114.043 94.121c-5.086-7.906-10.57-12.336-16.922-9.25-1.36 9.54 10.852 9.277 16.922 9.25m0 0"/><path fill="#26a269" d="M109.762 91.785c-4.375-1.86-9.157-2.77-12.688-6.601v-.375l.371-.114c2.942 3.856 8.02 4.973 12.317 7.09m0 0"/><path fill="url(#S)" d="M96.063 88.723c-3.66-4.668-7.364-7.13-11.172-4.82-.297 6.07 7.359 5.19 11.171 4.82m0 0"/><path fill="#26a269" d="M93.234 87.504c-2.855-.91-5.91-1.203-8.355-3.402l-.02-.239.227-.09c2.07 2.25 5.328 2.653 8.148 3.73m0 0"/><path fill="url(#T)" d="M74.293 95.45c-3.004-5.938-6.543-9.458-11.238-7.747-1.653 6.613 6.965 7.32 11.238 7.746m0 0"/><path fill="#26a269" d="M71.45 93.492c-2.942-1.629-6.243-2.617-8.45-5.574l.027-.262.27-.054c1.789 2.93 5.281 4.085 8.152 5.89m0 0"/><path fill="url(#U)" d="M119.883 66.867c-10.13-1.98-17.809-1-20.188 6.375 6.52 8.332 15.594-1.547 20.188-6.375m0 0"/><path fill="#26a269" d="M114.777 68.48c-4.797 2.055-9.152 5.153-14.875 5.04l-.297-.29.196-.378c5.285.601 10.031-2.575 14.976-4.372m0 0"/><path fill="url(#V)" d="M38.102 112.781c2.953-5.246 3.824-9.676.175-12.347-5.804 2.082-2.007 8.918-.175 12.347m0 0"/><path fill="#26a269" d="M38.145 109.656c-.254-3.031-1.172-6.011-.055-9.156l.21-.11.177.176c-1.305 2.817-.418 6.024-.332 9.09m0 0"/><path fill="url(#W)" d="M61.078 104.129c-.82-9.61-3.672-16.254-10.906-16.5-5.809 7.996 5.39 13.613 10.906 16.5m0 0"/><path fill="#26a269" d="M58.32 99.957c-3.078-3.785-6.976-6.898-8.343-12.07l.183-.336.39.074c.817 4.902 4.888 8.352 7.77 12.332m0 0"/><path fill="url(#X)" d="M12.398 111.375c9.176-1.715 15.301-5.098 14.84-12.094-8.258-4.824-12.59 6.504-14.84 12.094m0 0"/><path fill="#26a269" d="M16.152 108.313c3.348-3.325 5.973-7.38 10.82-9.192l.344.14-.035.384c-4.644 1.261-7.574 5.511-11.129 8.668m0 0"/><path fill="url(#Y)" d="M100.707 76.957c-6.227-.8-10.848.098-12 4.668 4.29 4.797 9.406-1.559 12-4.668m0 0"/><path fill="#26a269" d="M97.672 78.137c-2.828 1.437-5.348 3.488-8.828 3.648l-.192-.164.102-.238c3.234.156 5.988-1.961 8.918-3.246m0 0"/><path fill="url(#Z)" d="M60.637 94.02c1.582-6.418 1.199-11.36-3.446-13.114-5.53 3.91.5 10.024 3.446 13.114m0 0"/><path fill="#26a269" d="M59.762 90.703c-1.16-3.133-3.004-6.016-2.754-9.672l.195-.18.234.137c-.55 3.364 1.333 6.496 2.325 9.715m0 0"/><path fill="url(#aa)" d="M100.32 56.266c-4.175-.766-7.328-.325-8.27 2.718 2.723 3.395 6.407-.71 8.27-2.718m0 0"/><path fill="#26a269" d="M98.23 56.957c-1.964.867-3.738 2.16-6.093 2.14l-.121-.117.074-.156c2.18.223 4.113-1.105 6.14-1.867m0 0"/><path fill="url(#ab)" d="M95.89 106.98c-8.597-8.187-16.652-11.988-23.523-6.304 1.172 12.113 16.082 8.148 23.524 6.304m0 0"/><path fill="#26a269" d="M89.941 105.387c-5.925-.977-12.062-.664-17.543-4.317l-.109-.457.422-.25c4.758 3.852 11.324 3.707 17.23 5.024m0 0"/><path fill="url(#ac)" d="M79.121 119.59c-2.96-10.926-7.644-18.008-16.058-16.778-5.036 10.458 9.082 14.602 16.058 16.778m0 0"/><path fill="#26a269" d="M75.059 115.352c-4.348-3.73-9.504-6.512-12.164-12.2l.136-.43.469.008c1.969 5.493 7.395 8.625 11.559 12.622m0 0"/><path fill="url(#ad)" d="M75.336 68.996c-7.32-.871-12.738.234-14.04 5.613 5.087 5.586 11.024-1.93 14.04-5.613m0 0"/><path fill="#26a269" d="M71.785 70.418c-3.308 1.715-6.242 4.152-10.324 4.375l-.227-.188.118-.28c3.796.148 7.007-2.368 10.433-3.907m0 0"/><path fill="url(#ae)" d="M119.566 106.8c-5.086-7.905-10.574-12.34-16.921-9.25-1.364 9.536 10.851 9.274 16.921 9.25m0 0"/><path fill="#238d5d" d="M115.285 104.46c-4.375-1.858-9.156-2.765-12.691-6.6l.004-.376.37-.113c2.938 3.856 8.02 4.973 12.317 7.09m0 0"/></svg>